ISO-10303-21;
HEADER;
FILE_DESCRIPTION (( 'STEP AP214' ),
    '1' );
FILE_NAME ('21.250.90.5.STEP',
    '2024-08-11T12:37:29',
    ( 'LENOVO' ),
    ( '' ),
    'SwSTEP 2.0',
    'SolidWorks 2021',
    '' );
FILE_SCHEMA (( 'AUTOMOTIVE_DESIGN' ));
ENDSEC;

DATA;
#1 = CYLINDRICAL_SURFACE ( 'NONE', #552, 0.05000000000000002359 ) ;
#2 = ORIENTED_EDGE ( 'NONE', *, *, #1009, .T. ) ;
#3 = LINE ( 'NONE', #119, #411 ) ;
#4 = ORIENTED_EDGE ( 'NONE', *, *, #1099, .T. ) ;
#5 = EDGE_LOOP ( 'NONE', ( #392, #537, #160, #487 ) ) ;
#6 = ORIENTED_EDGE ( 'NONE', *, *, #721, .T. ) ;
#7 = DIRECTION ( 'NONE',  ( -1.000000000000000000, -0.000000000000000000, -0.000000000000000000 ) ) ;
#8 = CYLINDRICAL_SURFACE ( 'NONE', #1148, 0.05000000000000002359 ) ;
#9 = LINE ( 'NONE', #648, #844 ) ;
#10 = AXIS2_PLACEMENT_3D ( 'NONE', #1176, #581, #708 ) ;
#11 = DIRECTION ( 'NONE',  ( 0.000000000000000000, 0.000000000000000000, 1.000000000000000000 ) ) ;
#12 = EDGE_LOOP ( 'NONE', ( #502, #869, #483, #475 ) ) ;
#13 = EDGE_CURVE ( 'NONE', #1010, #701, #1096, .T. ) ;
#14 = EDGE_LOOP ( 'NONE', ( #95, #961, #198, #652 ) ) ;
#15 = CARTESIAN_POINT ( 'NONE',  ( -0.4999999999999998890, 0.9000000000000000222, -0.6250000000000000000 ) ) ;
#16 = FACE_OUTER_BOUND ( 'NONE', #5, .T. ) ;
#17 = CARTESIAN_POINT ( 'NONE',  ( 0.000000000000000000, 0.8499999999999999778, 0.5749999999999995115 ) ) ;
#18 = ORIENTED_EDGE ( 'NONE', *, *, #706, .F. ) ;
#19 = ADVANCED_FACE ( 'NONE', ( #663 ), #705, .F. ) ;
#20 = VERTEX_POINT ( 'NONE', #889 ) ;
#21 = DIRECTION ( 'NONE',  ( 1.000000000000000000, 0.000000000000000000, 1.734723475976811778E-16 ) ) ;
#22 = ORIENTED_EDGE ( 'NONE', *, *, #309, .F. ) ;
#23 = ORIENTED_EDGE ( 'NONE', *, *, #1094, .F. ) ;
#24 = CARTESIAN_POINT ( 'NONE',  ( -0.9499999999999997335, 0.8499999999999999778, 0.6249999999999995559 ) ) ;
#25 = EDGE_LOOP ( 'NONE', ( #1126, #1090, #126, #626 ) ) ;
#26 = AXIS2_PLACEMENT_3D ( 'NONE', #42, #285, #703 ) ;
#27 = DIRECTION ( 'NONE',  ( 0.000000000000000000, -1.000000000000000000, 0.000000000000000000 ) ) ;
#28 = EDGE_CURVE ( 'NONE', #507, #478, #666, .T. ) ;
#29 = DIRECTION ( 'NONE',  ( 0.000000000000000000, -1.000000000000000000, 0.000000000000000000 ) ) ;
#30 = LINE ( 'NONE', #311, #496 ) ;
#31 = CARTESIAN_POINT ( 'NONE',  ( 0.4999999999999997780, 0.9000000000000000222, 0.6249999999999995559 ) ) ;
#32 = DIRECTION ( 'NONE',  ( 1.000000000000000000, 0.000000000000000000, 8.673617379884037937E-17 ) ) ;
#33 = ADVANCED_FACE ( 'NONE', ( #229 ), #465, .F. ) ;
#34 = AXIS2_PLACEMENT_3D ( 'NONE', #329, #551, #839 ) ;
#35 =( NAMED_UNIT ( * ) PLANE_ANGLE_UNIT ( ) SI_UNIT ( $, .RADIAN. ) );
#36 = VECTOR ( 'NONE', #590, 1000.000000000000000 ) ;
#37 = AXIS2_PLACEMENT_3D ( 'NONE', #597, #1195, #1200 ) ;
#38 = AXIS2_PLACEMENT_3D ( 'NONE', #603, #1044, #816 ) ;
#39 = ORIENTED_EDGE ( 'NONE', *, *, #784, .T. ) ;
#40 =( NAMED_UNIT ( * ) SI_UNIT ( $, .STERADIAN. ) SOLID_ANGLE_UNIT ( ) );
#41 = EDGE_CURVE ( 'NONE', #171, #1013, #232, .T. ) ;
#42 = CARTESIAN_POINT ( 'NONE',  ( -0.9499999999999997335, 0.05000000000000000278, 0.5749999999999995115 ) ) ;
#43 = EDGE_LOOP ( 'NONE', ( #166, #1004, #179 ) ) ;
#44 = FACE_OUTER_BOUND ( 'NONE', #390, .T. ) ;
#45 = EDGE_LOOP ( 'NONE', ( #419, #978, #435, #571 ) ) ;
#46 = ORIENTED_EDGE ( 'NONE', *, *, #381, .T. ) ;
#47 = VECTOR ( 'NONE', #1029, 1000.000000000000000 ) ;
#48 =( LENGTH_UNIT ( ) NAMED_UNIT ( * ) SI_UNIT ( .MILLI., .METRE. ) );
#49 = APPLICATION_CONTEXT ( 'automotive_design' ) ;
#50 = VERTEX_POINT ( 'NONE', #1006 ) ;
#51 = CARTESIAN_POINT ( 'NONE',  ( -0.4999999999999997780, 0.05000000000000003053, -0.6083333333333333925 ) ) ;
#52 = AXIS2_PLACEMENT_3D ( 'NONE', #486, #812, #804 ) ;
#53 = FILL_AREA_STYLE ('',( #426 ) ) ;
#54 = ORIENTED_EDGE ( 'NONE', *, *, #333, .F. ) ;
#55 = CYLINDRICAL_SURFACE ( 'NONE', #938, 0.04999999999999991257 ) ;
#56 = EDGE_CURVE ( 'NONE', #738, #517, #235, .T. ) ;
#57 = ORIENTED_EDGE ( 'NONE', *, *, #585, .T. ) ;
#58 = FACE_OUTER_BOUND ( 'NONE', #550, .T. ) ;
#59 = VERTEX_POINT ( 'NONE', #100 ) ;
#60 = CARTESIAN_POINT ( 'NONE',  ( -0.4999999999999997780, 0.9000000000000000222, 0.6249999999999995559 ) ) ;
#61 = EDGE_LOOP ( 'NONE', ( #629, #57, #963, #649 ) ) ;
#62 = CARTESIAN_POINT ( 'NONE',  ( 0.9499999999999999556, 0.05000000000000002359, -0.5749999999999999556 ) ) ;
#63 = ORIENTED_EDGE ( 'NONE', *, *, #286, .F. ) ;
#64 = DIRECTION ( 'NONE',  ( -1.000000000000000000, 0.000000000000000000, 0.000000000000000000 ) ) ;
#65 = ORIENTED_EDGE ( 'NONE', *, *, #301, .F. ) ;
#66 = FACE_OUTER_BOUND ( 'NONE', #512, .T. ) ;
#67 = VERTEX_POINT ( 'NONE', #228 ) ;
#68 = FACE_OUTER_BOUND ( 'NONE', #141, .T. ) ;
#69 = DIRECTION ( 'NONE',  ( 0.000000000000000000, -1.000000000000000000, -0.000000000000000000 ) ) ;
#70 = AXIS2_PLACEMENT_3D ( 'NONE', #264, #765, #538 ) ;
#71 = ORIENTED_EDGE ( 'NONE', *, *, #817, .T. ) ;
#72 = ORIENTED_EDGE ( 'NONE', *, *, #1180, .F. ) ;
#73 = EDGE_CURVE ( 'NONE', #1039, #931, #674, .T. ) ;
#74 = CIRCLE ( 'NONE', #753, 0.05000000000000002359 ) ;
#75 = ORIENTED_EDGE ( 'NONE', *, *, #319, .F. ) ;
#76 = LINE ( 'NONE', #936, #891 ) ;
#77 = EDGE_LOOP ( 'NONE', ( #470, #554, #23, #589, #138, #659, #880, #84 ) ) ;
#78 = CIRCLE ( 'NONE', #10, 0.05000000000000002359 ) ;
#79 = CIRCLE ( 'NONE', #314, 0.05000000000000002359 ) ;
#80 = DIRECTION ( 'NONE',  ( 0.000000000000000000, 0.000000000000000000, 1.000000000000000000 ) ) ;
#81 = ORIENTED_EDGE ( 'NONE', *, *, #834, .F. ) ;
#82 = ORIENTED_EDGE ( 'NONE', *, *, #125, .F. ) ;
#83 = DIRECTION ( 'NONE',  ( 0.000000000000000000, -0.000000000000000000, 1.000000000000000000 ) ) ;
#84 = ORIENTED_EDGE ( 'NONE', *, *, #1051, .F. ) ;
#85 = DIRECTION ( 'NONE',  ( 1.000000000000000000, -0.000000000000000000, 0.000000000000000000 ) ) ;
#86 = AXIS2_PLACEMENT_3D ( 'NONE', #1093, #977, #375 ) ;
#87 = DIRECTION ( 'NONE',  ( 0.000000000000000000, 1.000000000000000000, 0.000000000000000000 ) ) ;
#88 = AXIS2_PLACEMENT_3D ( 'NONE', #781, #777, #289 ) ;
#89 = EDGE_LOOP ( 'NONE', ( #911, #1032, #661, #1143 ) ) ;
#90 = DIRECTION ( 'NONE',  ( -1.000000000000000000, 0.000000000000000000, 0.000000000000000000 ) ) ;
#91 = EDGE_CURVE ( 'NONE', #643, #1169, #437, .T. ) ;
#92 = DIRECTION ( 'NONE',  ( 0.000000000000000000, 1.000000000000000000, 0.000000000000000000 ) ) ;
#93 = EDGE_LOOP ( 'NONE', ( #458, #586, #1097, #222 ) ) ;
#94 = DIRECTION ( 'NONE',  ( 0.000000000000000000, 0.000000000000000000, 1.000000000000000000 ) ) ;
#95 = ORIENTED_EDGE ( 'NONE', *, *, #941, .F. ) ;
#96 = CARTESIAN_POINT ( 'NONE',  ( 0.4999999999999998890, 0.9000000000000000222, -0.6250000000000000000 ) ) ;
#97 = ORIENTED_EDGE ( 'NONE', *, *, #56, .F. ) ;
#98 = CARTESIAN_POINT ( 'NONE',  ( -0.9499999999999997335, 0.000000000000000000, 0.5749999999999995115 ) ) ;
#99 = ORIENTED_EDGE ( 'NONE', *, *, #333, .T. ) ;
#100 = CARTESIAN_POINT ( 'NONE',  ( 0.4999999999999997780, 0.9000000000000000222, 0.5749999999999996225 ) ) ;
#101 = ORIENTED_EDGE ( 'NONE', *, *, #707, .F. ) ;
#102 = AXIS2_PLACEMENT_3D ( 'NONE', #799, #900, #1228 ) ;
#103 = ORIENTED_EDGE ( 'NONE', *, *, #125, .T. ) ;
#104 = ORIENTED_EDGE ( 'NONE', *, *, #1157, .T. ) ;
#105 = DIRECTION ( 'NONE',  ( 1.000000000000000000, 0.000000000000000000, 8.673617379884037937E-17 ) ) ;
#106 = AXIS2_PLACEMENT_3D ( 'NONE', #1121, #85, #505 ) ;
#107 = VECTOR ( 'NONE', #434, 1000.000000000000000 ) ;
#108 = CARTESIAN_POINT ( 'NONE',  ( 0.000000000000000000, 0.8499999999999999778, -0.5749999999999999556 ) ) ;
#109 = ORIENTED_EDGE ( 'NONE', *, *, #834, .T. ) ;
#110 = DIRECTION ( 'NONE',  ( 0.000000000000000000, 0.000000000000000000, -1.000000000000000000 ) ) ;
#111 = LINE ( 'NONE', #180, #107 ) ;
#112 = DIRECTION ( 'NONE',  ( 0.000000000000000000, -1.000000000000000000, 0.000000000000000000 ) ) ;
#113 = ORIENTED_EDGE ( 'NONE', *, *, #176, .F. ) ;
#114 = ORIENTED_EDGE ( 'NONE', *, *, #129, .T. ) ;
#115 = LINE ( 'NONE', #60, #576 ) ;
#116 = ORIENTED_EDGE ( 'NONE', *, *, #632, .T. ) ;
#117 = SPHERICAL_SURFACE ( 'NONE', #766, 0.05000000000000000278 ) ;
#118 = CARTESIAN_POINT ( 'NONE',  ( 500000.0000000000582, 0.8499999999999999778, 0.5749999999566314246 ) ) ;
#119 = CARTESIAN_POINT ( 'NONE',  ( 500000.0000000000582, 0.8499999999999999778, -0.6083333333767014794 ) ) ;
#120 = ORIENTED_EDGE ( 'NONE', *, *, #1262, .T. ) ;
#121 = SPHERICAL_SURFACE ( 'NONE', #26, 0.05000000000000000278 ) ;
#122 = DIRECTION ( 'NONE',  ( -1.000000000000000000, 0.000000000000000000, 0.000000000000000000 ) ) ;
#123 = VERTEX_POINT ( 'NONE', #192 ) ;
#124 = DIRECTION ( 'NONE',  ( 1.734723475976807587E-16, -0.000000000000000000, 1.000000000000000000 ) ) ;
#125 = EDGE_CURVE ( 'NONE', #50, #904, #3, .T. ) ;
#126 = ORIENTED_EDGE ( 'NONE', *, *, #293, .F. ) ;
#127 = PRESENTATION_STYLE_ASSIGNMENT (( #1149 ) ) ;
#128 = DIRECTION ( 'NONE',  ( 1.000000000000000000, -0.000000000000000000, -8.673617379884037937E-17 ) ) ;
#129 = EDGE_CURVE ( 'NONE', #872, #50, #439, .T. ) ;
#130 = VECTOR ( 'NONE', #1205, 1000.000000000000000 ) ;
#131 = DIRECTION ( 'NONE',  ( 0.000000000000000000, 0.000000000000000000, 1.000000000000000000 ) ) ;
#132 = ORIENTED_EDGE ( 'NONE', *, *, #272, .F. ) ;
#133 = VECTOR ( 'NONE', #203, 1000.000000000000000 ) ;
#134 = SURFACE_SIDE_STYLE ('',( #1227 ) ) ;
#135 =( LENGTH_UNIT ( ) NAMED_UNIT ( * ) SI_UNIT ( .MILLI., .METRE. ) );
#136 = CARTESIAN_POINT ( 'NONE',  ( 1.000000000000000000, 0.05000000000000002359, -0.5749999999999999556 ) ) ;
#137 = ADVANCED_BREP_SHAPE_REPRESENTATION ( '21.250.90.5', ( #197, #667, #1089, #1175 ), #980 ) ;
#138 = ORIENTED_EDGE ( 'NONE', *, *, #580, .T. ) ;
#139 = VECTOR ( 'NONE', #164, 1000.000000000000000 ) ;
#140 = DIRECTION ( 'NONE',  ( 0.000000000000000000, 0.000000000000000000, -1.000000000000000000 ) ) ;
#141 = EDGE_LOOP ( 'NONE', ( #270, #932, #1084, #920 ) ) ;
#142 = EDGE_LOOP ( 'NONE', ( #394, #406, #101, #633 ) ) ;
#143 = AXIS2_PLACEMENT_3D ( 'NONE', #970, #761, #1254 ) ;
#144 = ORIENTED_EDGE ( 'NONE', *, *, #1116, .F. ) ;
#145 = DIRECTION ( 'NONE',  ( 0.000000000000000000, -1.000000000000000000, -0.000000000000000000 ) ) ;
#146 = DIRECTION ( 'NONE',  ( -0.000000000000000000, -1.000000000000000000, -0.000000000000000000 ) ) ;
#147 = ORIENTED_EDGE ( 'NONE', *, *, #1180, .T. ) ;
#148 = ORIENTED_EDGE ( 'NONE', *, *, #91, .F. ) ;
#149 = EDGE_CURVE ( 'NONE', #975, #675, #442, .T. ) ;
#150 = DIRECTION ( 'NONE',  ( 1.000000000000000000, -0.000000000000000000, -0.000000000000000000 ) ) ;
#151 = CIRCLE ( 'NONE', #1186, 0.05000000000000002359 ) ;
#152 = LINE ( 'NONE', #234, #1028 ) ;
#153 = ORIENTED_EDGE ( 'NONE', *, *, #1251, .T. ) ;
#154 = EDGE_CURVE ( 'NONE', #954, #967, #408, .T. ) ;
#155 = CIRCLE ( 'NONE', #892, 0.05000000000000002359 ) ;
#156 = DIRECTION ( 'NONE',  ( -1.000000000000000000, -0.000000000000000000, 8.673617379884036705E-17 ) ) ;
#157 = VERTEX_POINT ( 'NONE', #500 ) ;
#158 = LINE ( 'NONE', #634, #201 ) ;
#159 = DIRECTION ( 'NONE',  ( 8.673617379884037937E-17, 0.000000000000000000, -1.000000000000000000 ) ) ;
#160 = ORIENTED_EDGE ( 'NONE', *, *, #154, .T. ) ;
#161 = DIRECTION ( 'NONE',  ( 0.000000000000000000, 0.000000000000000000, 1.000000000000000000 ) ) ;
#162 = DIRECTION ( 'NONE',  ( 0.000000000000000000, 0.000000000000000000, 1.000000000000000000 ) ) ;
#163 = VERTEX_POINT ( 'NONE', #806 ) ;
#164 = DIRECTION ( 'NONE',  ( -1.000000000000000000, -0.000000000000000000, -0.000000000000000000 ) ) ;
#165 = FACE_OUTER_BOUND ( 'NONE', #514, .T. ) ;
#166 = ORIENTED_EDGE ( 'NONE', *, *, #1024, .F. ) ;
#167 = ORIENTED_EDGE ( 'NONE', *, *, #13, .F. ) ;
#168 = PRESENTATION_LAYER_ASSIGNMENT (  '', '', ( #1129 ) ) ;
#169 = LINE ( 'NONE', #1193, #1034 ) ;
#170 = CARTESIAN_POINT ( 'NONE',  ( -1.000000000000000000, 0.8499999999999999778, -0.5749999999999999556 ) ) ;
#171 = VERTEX_POINT ( 'NONE', #511 ) ;
#172 = FACE_OUTER_BOUND ( 'NONE', #178, .T. ) ;
#173 =( GEOMETRIC_REPRESENTATION_CONTEXT ( 3 ) GLOBAL_UNCERTAINTY_ASSIGNED_CONTEXT ( ( #763 ) ) GLOBAL_UNIT_ASSIGNED_CONTEXT ( ( #398, #35, #698 ) ) REPRESENTATION_CONTEXT ( 'NONE', 'WORKASPACE' ) );
#174 = ORIENTED_EDGE ( 'NONE', *, *, #248, .T. ) ;
#175 = ADVANCED_FACE ( 'NONE', ( #429 ), #8, .T. ) ;
#176 = EDGE_CURVE ( 'NONE', #610, #954, #389, .T. ) ;
#177 = PRODUCT_CONTEXT ( 'NONE', #49, 'mechanical' ) ;
#178 = EDGE_LOOP ( 'NONE', ( #256, #103, #99, #690 ) ) ;
#179 = ORIENTED_EDGE ( 'NONE', *, *, #1157, .F. ) ;
#180 = CARTESIAN_POINT ( 'NONE',  ( -0.9999999999999997780, 0.8499999999999999778, 0.6249999999999995559 ) ) ;
#181 = FACE_OUTER_BOUND ( 'NONE', #14, .T. ) ;
#182 = DIRECTION ( 'NONE',  ( -1.000000000000000000, 0.000000000000000000, 0.000000000000000000 ) ) ;
#183 = ORIENTED_EDGE ( 'NONE', *, *, #559, .F. ) ;
#184 = ORIENTED_EDGE ( 'NONE', *, *, #326, .F. ) ;
#185 = LINE ( 'NONE', #530, #1083 ) ;
#186 = VERTEX_POINT ( 'NONE', #743 ) ;
#187 = CIRCLE ( 'NONE', #208, 0.03333333333333334675 ) ;
#188 = CYLINDRICAL_SURFACE ( 'NONE', #102, 0.03333333333333334675 ) ;
#189 = VERTEX_POINT ( 'NONE', #908 ) ;
#190 = AXIS2_PLACEMENT_3D ( 'NONE', #224, #316, #1031 ) ;
#191 = SPHERICAL_SURFACE ( 'NONE', #731, 0.05000000000000000278 ) ;
#192 = CARTESIAN_POINT ( 'NONE',  ( 0.4999999999881765689, 0.01666666666666666644, -0.5749999999999998446 ) ) ;
#193 = ORIENTED_EDGE ( 'NONE', *, *, #921, .T. ) ;
#194 = AXIS2_PLACEMENT_3D ( 'NONE', #1118, #7, #1267 ) ;
#195 = LINE ( 'NONE', #794, #1082 ) ;
#196 = CYLINDRICAL_SURFACE ( 'NONE', #292, 0.05000000000000002359 ) ;
#197 = MANIFOLD_SOLID_BREP ( 'Fillet1', #481 ) ;
#198 = ORIENTED_EDGE ( 'NONE', *, *, #457, .F. ) ;
#199 = ORIENTED_EDGE ( 'NONE', *, *, #210, .T. ) ;
#200 = EDGE_CURVE ( 'NONE', #699, #614, #479, .T. ) ;
#201 = VECTOR ( 'NONE', #809, 1000.000000000000000 ) ;
#202 = CARTESIAN_POINT ( 'NONE',  ( -1.000000000000000000, 0.05000000000000002359, -0.6250000000000000000 ) ) ;
#203 = DIRECTION ( 'NONE',  ( -1.000000000000000000, -0.000000000000000000, 8.673617379884036705E-17 ) ) ;
#204 = CYLINDRICAL_SURFACE ( 'NONE', #1074, 0.05000000000000002359 ) ;
#205 = FACE_OUTER_BOUND ( 'NONE', #43, .T. ) ;
#206 = VERTEX_POINT ( 'NONE', #262 ) ;
#207 = LINE ( 'NONE', #1208, #588 ) ;
#208 = AXIS2_PLACEMENT_3D ( 'NONE', #1144, #105, #304 ) ;
#209 = CARTESIAN_POINT ( 'NONE',  ( -0.9999999999999997780, 0.8499999999999999778, 0.5749999999999995115 ) ) ;
#210 = EDGE_CURVE ( 'NONE', #701, #20, #896, .T. ) ;
#211 = EDGE_LOOP ( 'NONE', ( #116, #254, #428, #611 ) ) ;
#212 = VECTOR ( 'NONE', #156, 1000.000000000000000 ) ;
#213 =( NAMED_UNIT ( * ) SI_UNIT ( $, .STERADIAN. ) SOLID_ANGLE_UNIT ( ) );
#214 = EDGE_CURVE ( 'NONE', #872, #517, #933, .T. ) ;
#215 = LINE ( 'NONE', #518, #612 ) ;
#216 = VERTEX_POINT ( 'NONE', #1155 ) ;
#217 = CARTESIAN_POINT ( 'NONE',  ( 500000.0000000000582, 0.05000000000000002359, 0.5749999999566314246 ) ) ;
#218 = CARTESIAN_POINT ( 'NONE',  ( 0.4999999999881765689, 0.8499999999999999778, 0.6083333333333329485 ) ) ;
#219 = DIRECTION ( 'NONE',  ( -8.673617379884037937E-17, 0.000000000000000000, -1.000000000000000000 ) ) ;
#220 = VECTOR ( 'NONE', #606, 1000.000000000000000 ) ;
#221 = SPHERICAL_SURFACE ( 'NONE', #651, 0.05000000000000000278 ) ;
#222 = ORIENTED_EDGE ( 'NONE', *, *, #563, .F. ) ;
#223 = FACE_OUTER_BOUND ( 'NONE', #61, .T. ) ;
#224 = CARTESIAN_POINT ( 'NONE',  ( -0.9499999999999999556, 0.05000000000000002359, -0.6250000000000000000 ) ) ;
#225 = AXIS2_PLACEMENT_3D ( 'NONE', #306, #739, #801 ) ;
#226 = CARTESIAN_POINT ( 'NONE',  ( 0.4999999999999997780, 0.05000000000000002359, 0.6249999999999995559 ) ) ;
#227 = LINE ( 'NONE', #558, #1114 ) ;
#228 = CARTESIAN_POINT ( 'NONE',  ( 0.4999999999881765689, 0.8833333333333333037, -0.5749999999999999556 ) ) ;
#229 = FACE_OUTER_BOUND ( 'NONE', #45, .T. ) ;
#230 = EDGE_CURVE ( 'NONE', #975, #171, #74, .T. ) ;
#231 = LINE ( 'NONE', #339, #668 ) ;
#232 = LINE ( 'NONE', #303, #670 ) ;
#233 = ORIENTED_EDGE ( 'NONE', *, *, #295, .T. ) ;
#234 = CARTESIAN_POINT ( 'NONE',  ( -0.9499999999999999556, 0.9000000000000000222, -0.6250000000000000000 ) ) ;
#235 = CIRCLE ( 'NONE', #282, 0.03333333333333334675 ) ;
#236 = DIRECTION ( 'NONE',  ( 0.000000000000000000, 1.000000000000000000, 0.000000000000000000 ) ) ;
#237 = VERTEX_POINT ( 'NONE', #469 ) ;
#238 = FACE_OUTER_BOUND ( 'NONE', #1068, .T. ) ;
#239 = CARTESIAN_POINT ( 'NONE',  ( -0.4999999999999997780, 0.9000000000000000222, 0.5749999999999996225 ) ) ;
#240 = DIRECTION ( 'NONE',  ( 1.000000000000000000, 0.000000000000000000, -8.673617379884036705E-17 ) ) ;
#241 = FACE_OUTER_BOUND ( 'NONE', #1021, .T. ) ;
#242 = AXIS2_PLACEMENT_3D ( 'NONE', #385, #756, #515 ) ;
#243 = CARTESIAN_POINT ( 'NONE',  ( -0.9499999999999997335, 0.9000000000000000222, 0.6249999999999995559 ) ) ;
#244 = PRESENTATION_LAYER_ASSIGNMENT (  '', '', ( #1212 ) ) ;
#245 = ADVANCED_FACE ( 'NONE', ( #485 ), #55, .T. ) ;
#246 = DIRECTION ( 'NONE',  ( 1.000000000000000000, 0.000000000000000000, 0.000000000000000000 ) ) ;
#247 = CYLINDRICAL_SURFACE ( 'NONE', #1177, 0.05000000000000002359 ) ;
#248 = EDGE_CURVE ( 'NONE', #294, #883, #937, .T. ) ;
#249 = ORIENTED_EDGE ( 'NONE', *, *, #1138, .T. ) ;
#250 = COLOUR_RGB ( '',0.7921568627450980005, 0.8196078431372548767, 0.9333333333333333481 ) ;
#251 = DIRECTION ( 'NONE',  ( -1.734723475976807587E-16, -0.000000000000000000, -1.000000000000000000 ) ) ;
#252 = VECTOR ( 'NONE', #848, 1000.000000000000000 ) ;
#253 =( LENGTH_UNIT ( ) NAMED_UNIT ( * ) SI_UNIT ( .MILLI., .METRE. ) );
#254 = ORIENTED_EDGE ( 'NONE', *, *, #1116, .T. ) ;
#255 = DIRECTION ( 'NONE',  ( 0.000000000000000000, 0.000000000000000000, 1.000000000000000000 ) ) ;
#256 = ORIENTED_EDGE ( 'NONE', *, *, #691, .F. ) ;
#257 = ADVANCED_FACE ( 'NONE', ( #66 ), #885, .T. ) ;
#258 = CARTESIAN_POINT ( 'NONE',  ( 0.4999999999881765689, 0.01666666666666666644, 0.5749999999132634487 ) ) ;
#259 = VERTEX_POINT ( 'NONE', #136 ) ;
#260 = AXIS2_PLACEMENT_3D ( 'NONE', #17, #1217, #622 ) ;
#261 =( NAMED_UNIT ( * ) PLANE_ANGLE_UNIT ( ) SI_UNIT ( $, .RADIAN. ) );
#262 = CARTESIAN_POINT ( 'NONE',  ( 0.9499999999999999556, 0.9000000000000000222, -0.5749999999999999556 ) ) ;
#263 = AXIS2_PLACEMENT_3D ( 'NONE', #654, #32, #876 ) ;
#264 = CARTESIAN_POINT ( 'NONE',  ( 0.4999999999999997780, 0.05000000000000002359, 0.5749999999999995115 ) ) ;
#265 = ORIENTED_EDGE ( 'NONE', *, *, #1056, .T. ) ;
#266 = CARTESIAN_POINT ( 'NONE',  ( 0.000000000000000000, 0.9000000000000000222, 0.000000000000000000 ) ) ;
#267 = ADVANCED_FACE ( 'NONE', ( #68 ), #464, .T. ) ;
#268 = DIRECTION ( 'NONE',  ( 0.000000000000000000, -1.000000000000000000, 0.000000000000000000 ) ) ;
#269 = CARTESIAN_POINT ( 'NONE',  ( 0.4999999999999998890, 0.000000000000000000, -0.5749999999999999556 ) ) ;
#270 = ORIENTED_EDGE ( 'NONE', *, *, #542, .F. ) ;
#271 = VERTEX_POINT ( 'NONE', #296 ) ;
#272 = EDGE_CURVE ( 'NONE', #974, #237, #943, .T. ) ;
#273 = DIRECTION ( 'NONE',  ( 1.000000000000000000, 0.000000000000000000, 0.000000000000000000 ) ) ;
#274 = CARTESIAN_POINT ( 'NONE',  ( 0.4999999999999998890, 0.9000000000000000222, -0.5749999999999999556 ) ) ;
#275 = PLANE ( 'NONE',  #628 ) ;
#276 = EDGE_LOOP ( 'NONE', ( #1008, #984, #583 ) ) ;
#277 = ORIENTED_EDGE ( 'NONE', *, *, #309, .T. ) ;
#278 = ORIENTED_EDGE ( 'NONE', *, *, #477, .T. ) ;
#279 = DIRECTION ( 'NONE',  ( 0.000000000000000000, 0.000000000000000000, -1.000000000000000000 ) ) ;
#280 = CARTESIAN_POINT ( 'NONE',  ( -0.4999999999999997780, 0.8499999999999999778, -0.6083333333333333925 ) ) ;
#281 = DIRECTION ( 'NONE',  ( -1.000000000000000000, 0.000000000000000000, 0.000000000000000000 ) ) ;
#282 = AXIS2_PLACEMENT_3D ( 'NONE', #1201, #1108, #1280 ) ;
#283 = VERTEX_POINT ( 'NONE', #1198 ) ;
#284 = EDGE_CURVE ( 'NONE', #294, #163, #491, .T. ) ;
#285 = DIRECTION ( 'NONE',  ( 0.000000000000000000, 1.000000000000000000, 0.000000000000000000 ) ) ;
#286 = EDGE_CURVE ( 'NONE', #490, #926, #928, .T. ) ;
#287 = ORIENTED_EDGE ( 'NONE', *, *, #542, .T. ) ;
#288 = ORIENTED_EDGE ( 'NONE', *, *, #427, .T. ) ;
#289 = DIRECTION ( 'NONE',  ( 0.000000000000000000, 0.000000000000000000, 1.000000000000000000 ) ) ;
#290 = PRODUCT_DEFINITION_SHAPE ( 'NONE', 'NONE',  #358 ) ;
#291 = ORIENTED_EDGE ( 'NONE', *, *, #1047, .T. ) ;
#292 = AXIS2_PLACEMENT_3D ( 'NONE', #779, #971, #1188 ) ;
#293 = EDGE_CURVE ( 'NONE', #206, #410, #30, .T. ) ;
#294 = VERTEX_POINT ( 'NONE', #745 ) ;
#295 = EDGE_CURVE ( 'NONE', #189, #1052, #917, .T. ) ;
#296 = CARTESIAN_POINT ( 'NONE',  ( -0.4999999999999998890, 0.9000000000000000222, -0.5749999999999999556 ) ) ;
#297 = DIRECTION ( 'NONE',  ( 1.000000000000000000, 0.000000000000000000, 0.000000000000000000 ) ) ;
#298 = PLANE ( 'NONE',  #520 ) ;
#299 = AXIS2_PLACEMENT_3D ( 'NONE', #680, #1224, #615 ) ;
#300 = CARTESIAN_POINT ( 'NONE',  ( -0.9499999999999997335, 0.05000000000000002359, 0.5749999999999995115 ) ) ;
#301 = EDGE_CURVE ( 'NONE', #20, #478, #467, .T. ) ;
#302 = DIRECTION ( 'NONE',  ( 0.000000000000000000, 0.000000000000000000, 1.000000000000000000 ) ) ;
#303 = CARTESIAN_POINT ( 'NONE',  ( -0.4999999999999997780, 0.9000000000000000222, 0.5749999999999995115 ) ) ;
#304 = DIRECTION ( 'NONE',  ( 0.000000000000000000, 0.000000000000000000, -1.000000000000000000 ) ) ;
#305 = AXIS2_PLACEMENT_3D ( 'NONE', #686, #1174, #331 ) ;
#306 = CARTESIAN_POINT ( 'NONE',  ( -0.9499999999999999556, 0.8499999999999999778, -0.5749999999999999556 ) ) ;
#307 = DIRECTION ( 'NONE',  ( -0.000000000000000000, 1.000000000000000000, -0.000000000000000000 ) ) ;
#308 = ADVANCED_FACE ( 'NONE', ( #58 ), #445, .T. ) ;
#309 = EDGE_CURVE ( 'NONE', #701, #157, #76, .T. ) ;
#310 = DIRECTION ( 'NONE',  ( 0.000000000000000000, 0.000000000000000000, -1.000000000000000000 ) ) ;
#311 = CARTESIAN_POINT ( 'NONE',  ( 0.9499999999999997335, 0.9000000000000000222, 0.6249999999999995559 ) ) ;
#312 = PLANE ( 'NONE',  #1260 ) ;
#313 = CARTESIAN_POINT ( 'NONE',  ( -0.4999999999999997780, 0.8499999999999999778, 0.5749999999999995115 ) ) ;
#314 = AXIS2_PLACEMENT_3D ( 'NONE', #1213, #640, #11 ) ;
#315 = CARTESIAN_POINT ( 'NONE',  ( -0.9499999999999999556, 0.05000000000000000278, -0.5749999999999999556 ) ) ;
#316 = DIRECTION ( 'NONE',  ( 1.734723475976807587E-16, -0.000000000000000000, 1.000000000000000000 ) ) ;
#317 = EDGE_CURVE ( 'NONE', #857, #954, #894, .T. ) ;
#318 = CARTESIAN_POINT ( 'NONE',  ( -0.9999999999999997780, 0.9000000000000000222, 0.6249999999999995559 ) ) ;
#319 = EDGE_CURVE ( 'NONE', #123, #738, #543, .T. ) ;
#320 = SURFACE_STYLE_USAGE ( .BOTH. , #134 ) ;
#321 =( NAMED_UNIT ( * ) SI_UNIT ( $, .STERADIAN. ) SOLID_ANGLE_UNIT ( ) );
#322 =( NAMED_UNIT ( * ) PLANE_ANGLE_UNIT ( ) SI_UNIT ( $, .RADIAN. ) );
#323 = CARTESIAN_POINT ( 'NONE',  ( -0.9499999999999999556, 0.8499999999999999778, -0.5749999999999999556 ) ) ;
#324 = DIRECTION ( 'NONE',  ( 0.000000000000000000, 0.000000000000000000, 1.000000000000000000 ) ) ;
#325 = AXIS2_PLACEMENT_3D ( 'NONE', #1218, #832, #476 ) ;
#326 = EDGE_CURVE ( 'NONE', #614, #684, #151, .T. ) ;
#327 = ADVANCED_FACE ( 'NONE', ( #531 ), #121, .T. ) ;
#328 = EDGE_CURVE ( 'NONE', #1154, #490, #111, .T. ) ;
#329 = CARTESIAN_POINT ( 'NONE',  ( 0.9499999999999999556, 0.05000000000000000278, -0.5749999999999999556 ) ) ;
#330 = CARTESIAN_POINT ( 'NONE',  ( 500000.0000000000582, 0.8833333333333333037, -0.5750000000433680425 ) ) ;
#331 = DIRECTION ( 'NONE',  ( 0.000000000000000000, 0.000000000000000000, -1.000000000000000000 ) ) ;
#332 = AXIS2_PLACEMENT_3D ( 'NONE', #449, #769, #1244 ) ;
#333 = EDGE_CURVE ( 'NONE', #904, #857, #1003, .T. ) ;
#334 = DIRECTION ( 'NONE',  ( 0.000000000000000000, 0.000000000000000000, 1.000000000000000000 ) ) ;
#335 = EDGE_CURVE ( 'NONE', #1139, #1052, #951, .T. ) ;
#336 = LINE ( 'NONE', #1278, #343 ) ;
#337 = CARTESIAN_POINT ( 'NONE',  ( -0.4999999999999998890, 0.9000000000000000222, -0.6250000000000000000 ) ) ;
#338 = EDGE_CURVE ( 'NONE', #237, #294, #569, .T. ) ;
#339 = CARTESIAN_POINT ( 'NONE',  ( 0.4999999999999998890, 0.000000000000000000, -0.6250000000000000000 ) ) ;
#340 = EDGE_CURVE ( 'NONE', #967, #1139, #983, .T. ) ;
#341 = CARTESIAN_POINT ( 'NONE',  ( 0.4999999999999998890, 0.8499999999999999778, -0.6250000000000000000 ) ) ;
#342 = CARTESIAN_POINT ( 'NONE',  ( 0.9499999999999997335, 0.05000000000000000278, 0.5749999999999995115 ) ) ;
#343 = VECTOR ( 'NONE', #1161, 1000.000000000000000 ) ;
#344 = DIRECTION ( 'NONE',  ( 8.673617379884037937E-17, 0.000000000000000000, 1.000000000000000000 ) ) ;
#345 = CIRCLE ( 'NONE', #1072, 0.05000000000000002359 ) ;
#346 = DIRECTION ( 'NONE',  ( 1.000000000000000000, -0.000000000000000000, -8.673617379884037937E-17 ) ) ;
#347 = AXIS2_PLACEMENT_3D ( 'NONE', #395, #527, #826 ) ;
#348 = CIRCLE ( 'NONE', #1070, 0.05000000000000002359 ) ;
#349 = EDGE_CURVE ( 'NONE', #1154, #216, #115, .T. ) ;
#350 = DIRECTION ( 'NONE',  ( 0.000000000000000000, 1.000000000000000000, 0.000000000000000000 ) ) ;
#351 = ADVANCED_FACE ( 'NONE', ( #534 ), #546, .T. ) ;
#352 = DIRECTION ( 'NONE',  ( 0.000000000000000000, -1.000000000000000000, 0.000000000000000000 ) ) ;
#353 = DIRECTION ( 'NONE',  ( 1.000000000000000000, -0.000000000000000000, 0.000000000000000000 ) ) ;
#354 = VECTOR ( 'NONE', #307, 1000.000000000000000 ) ;
#355 = VECTOR ( 'NONE', #145, 1000.000000000000000 ) ;
#356 = FACE_OUTER_BOUND ( 'NONE', #25, .T. ) ;
#357 = CARTESIAN_POINT ( 'NONE',  ( 0.000000000000000000, 0.9000000000000000222, 0.000000000000000000 ) ) ;
#358 = PRODUCT_DEFINITION ( 'UNKNOWN', '', #453, #724 ) ;
#359 = LINE ( 'NONE', #720, #829 ) ;
#360 = CARTESIAN_POINT ( 'NONE',  ( 0.4999999999881765689, 0.8499999999999999778, 0.6083333333333329485 ) ) ;
#361 = AXIS2_PLACEMENT_3D ( 'NONE', #315, #382, #1264 ) ;
#362 = FACE_OUTER_BOUND ( 'NONE', #472, .T. ) ;
#363 = EDGE_CURVE ( 'NONE', #283, #259, #155, .T. ) ;
#364 = FACE_OUTER_BOUND ( 'NONE', #12, .T. ) ;
#365 = DIRECTION ( 'NONE',  ( -1.734723475976807587E-16, 0.000000000000000000, -1.000000000000000000 ) ) ;
#366 = FACE_OUTER_BOUND ( 'NONE', #1141, .T. ) ;
#367 = DIRECTION ( 'NONE',  ( -1.000000000000000000, 0.000000000000000000, 0.000000000000000000 ) ) ;
#368 = CARTESIAN_POINT ( 'NONE',  ( 0.4999999999999998890, 0.05000000000000002359, -0.5749999999999999556 ) ) ;
#369 = CYLINDRICAL_SURFACE ( 'NONE', #52, 0.04999999999999991257 ) ;
#370 = DIRECTION ( 'NONE',  ( -0.000000000000000000, 1.000000000000000000, 0.000000000000000000 ) ) ;
#371 = VECTOR ( 'NONE', #735, 1000.000000000000000 ) ;
#372 = DIRECTION ( 'NONE',  ( 0.000000000000000000, 0.000000000000000000, 1.000000000000000000 ) ) ;
#373 = DIRECTION ( 'NONE',  ( -1.734723475976807587E-16, 0.000000000000000000, 1.000000000000000000 ) ) ;
#374 = ADVANCED_FACE ( 'NONE', ( #989 ), #553, .F. ) ;
#375 = DIRECTION ( 'NONE',  ( 1.000000000000000000, 0.000000000000000000, -8.673617379884037937E-17 ) ) ;
#376 = AXIS2_PLACEMENT_3D ( 'NONE', #898, #468, #64 ) ;
#377 = VECTOR ( 'NONE', #1080, 1000.000000000000000 ) ;
#378 = DIRECTION ( 'NONE',  ( 0.000000000000000000, 0.000000000000000000, 1.000000000000000000 ) ) ;
#379 = EDGE_CURVE ( 'NONE', #974, #259, #976, .T. ) ;
#380 = CARTESIAN_POINT ( 'NONE',  ( -1.000000000000000000, 0.8499999999999999778, -0.6250000000000000000 ) ) ;
#381 = EDGE_CURVE ( 'NONE', #507, #926, #78, .T. ) ;
#382 = DIRECTION ( 'NONE',  ( -0.000000000000000000, -0.000000000000000000, -1.000000000000000000 ) ) ;
#383 = VECTOR ( 'NONE', #625, 1000.000000000000000 ) ;
#384 = LINE ( 'NONE', #907, #855 ) ;
#385 = CARTESIAN_POINT ( 'NONE',  ( -0.9499999999999999556, 0.8499999999999999778, -0.5749999999999999556 ) ) ;
#386 = VECTOR ( 'NONE', #736, 1000.000000000000000 ) ;
#387 = ORIENTED_EDGE ( 'NONE', *, *, #504, .T. ) ;
#388 = PLANE ( 'NONE',  #1145 ) ;
#389 = LINE ( 'NONE', #1211, #1265 ) ;
#390 = EDGE_LOOP ( 'NONE', ( #711, #1162, #942, #526, #929, #1163, #950, #287 ) ) ;
#391 =( NAMED_UNIT ( * ) PLANE_ANGLE_UNIT ( ) SI_UNIT ( $, .RADIAN. ) );
#392 = ORIENTED_EDGE ( 'NONE', *, *, #607, .F. ) ;
#393 = SURFACE_STYLE_USAGE ( .BOTH. , #454 ) ;
#394 = ORIENTED_EDGE ( 'NONE', *, *, #746, .F. ) ;
#395 = CARTESIAN_POINT ( 'NONE',  ( 0.9499999999999999556, 0.8499999999999999778, -0.5749999999999999556 ) ) ;
#396 = STYLED_ITEM ( 'NONE', ( #421 ), #197 ) ;
#397 = VECTOR ( 'NONE', #159, 1000.000000000000000 ) ;
#398 =( LENGTH_UNIT ( ) NAMED_UNIT ( * ) SI_UNIT ( .MILLI., .METRE. ) );
#399 = ORIENTED_EDGE ( 'NONE', *, *, #817, .F. ) ;
#400 = EDGE_CURVE ( 'NONE', #949, #410, #503, .T. ) ;
#401 = ADVANCED_FACE ( 'NONE', ( #539 ), #117, .T. ) ;
#402 = EDGE_LOOP ( 'NONE', ( #865, #877, #1000, #557 ) ) ;
#403 = LINE ( 'NONE', #830, #882 ) ;
#404 = EDGE_LOOP ( 'NONE', ( #730, #489, #716, #1048 ) ) ;
#405 = CARTESIAN_POINT ( 'NONE',  ( 0.9499999999999999556, 0.05000000000000000278, -0.5749999999999999556 ) ) ;
#406 = ORIENTED_EDGE ( 'NONE', *, *, #1170, .F. ) ;
#407 = CARTESIAN_POINT ( 'NONE',  ( 0.4999999999881765689, 0.05000000000000002359, 0.6083333333333329485 ) ) ;
#408 = CIRCLE ( 'NONE', #536, 0.03333333333333334675 ) ;
#409 = DIRECTION ( 'NONE',  ( -1.000000000000000000, 0.000000000000000000, -0.000000000000000000 ) ) ;
#410 = VERTEX_POINT ( 'NONE', #810 ) ;
#411 = VECTOR ( 'NONE', #1025, 1000.000000000000000 ) ;
#412 = FACE_OUTER_BOUND ( 'NONE', #1105, .T. ) ;
#413 = ORIENTED_EDGE ( 'NONE', *, *, #28, .T. ) ;
#414 = ADVANCED_FACE ( 'NONE', ( #986 ), #996, .T. ) ;
#415 = AXIS2_PLACEMENT_3D ( 'NONE', #820, #350, #83 ) ;
#416 = SURFACE_STYLE_FILL_AREA ( #1061 ) ;
#417 = LINE ( 'NONE', #1243, #377 ) ;
#418 = PLANE ( 'NONE',  #299 ) ;
#419 = ORIENTED_EDGE ( 'NONE', *, *, #1134, .F. ) ;
#420 = DIRECTION ( 'NONE',  ( 1.000000000000000000, 0.000000000000000000, 0.000000000000000000 ) ) ;
#421 = PRESENTATION_STYLE_ASSIGNMENT (( #393 ) ) ;
#422 = CIRCLE ( 'NONE', #881, 0.05000000000000002359 ) ;
#423 = AXIS2_PLACEMENT_3D ( 'NONE', #785, #367, #879 ) ;
#424 = ORIENTED_EDGE ( 'NONE', *, *, #338, .F. ) ;
#425 = FACE_OUTER_BOUND ( 'NONE', #722, .T. ) ;
#426 = FILL_AREA_STYLE_COLOUR ( '', #250 ) ;
#427 = EDGE_CURVE ( 'NONE', #1023, #507, #1015, .T. ) ;
#428 = ORIENTED_EDGE ( 'NONE', *, *, #200, .T. ) ;
#429 = FACE_OUTER_BOUND ( 'NONE', #1040, .T. ) ;
#430 = ORIENTED_EDGE ( 'NONE', *, *, #1251, .F. ) ;
#431 = COLOUR_RGB ( '',0.7921568627450980005, 0.8196078431372548767, 0.9333333333333333481 ) ;
#432 = APPLICATION_PROTOCOL_DEFINITION ( 'draft international standard', 'automotive_design', 1998, #849 ) ;
#433 = ORIENTED_EDGE ( 'NONE', *, *, #1099, .F. ) ;
#434 = DIRECTION ( 'NONE',  ( -1.000000000000000000, -0.000000000000000000, -0.000000000000000000 ) ) ;
#435 = ORIENTED_EDGE ( 'NONE', *, *, #1094, .T. ) ;
#436 = CARTESIAN_POINT ( 'NONE',  ( -1.000000000000000000, 0.9000000000000000222, -0.5749999999999999556 ) ) ;
#437 = LINE ( 'NONE', #488, #383 ) ;
#438 = CARTESIAN_POINT ( 'NONE',  ( 0.9499999999999999556, 0.9000000000000000222, -0.5749999999999999556 ) ) ;
#439 = LINE ( 'NONE', #1153, #1270 ) ;
#440 = DIRECTION ( 'NONE',  ( 0.000000000000000000, -1.000000000000000000, 0.000000000000000000 ) ) ;
#441 = CIRCLE ( 'NONE', #1269, 0.05000000000000002359 ) ;
#442 = LINE ( 'NONE', #380, #847 ) ;
#443 =( GEOMETRIC_REPRESENTATION_CONTEXT ( 3 ) GLOBAL_UNCERTAINTY_ASSIGNED_CONTEXT ( ( #919 ) ) GLOBAL_UNIT_ASSIGNED_CONTEXT ( ( #253, #322, #213 ) ) REPRESENTATION_CONTEXT ( 'NONE', 'WORKASPACE' ) );
#444 = ADVANCED_FACE ( 'NONE', ( #1026 ), #204, .T. ) ;
#445 = CYLINDRICAL_SURFACE ( 'NONE', #704, 0.05000000000000002359 ) ;
#446 = VECTOR ( 'NONE', #124, 1000.000000000000000 ) ;
#447 = DIRECTION ( 'NONE',  ( 1.000000000000000000, 0.000000000000000000, 8.673617379884037937E-17 ) ) ;
#448 = CIRCLE ( 'NONE', #516, 0.05000000000000002359 ) ;
#449 = CARTESIAN_POINT ( 'NONE',  ( 0.9499999999999997335, 0.9000000000000000222, 0.5749999999999995115 ) ) ;
#450 = DIRECTION ( 'NONE',  ( 0.000000000000000000, 0.000000000000000000, -1.000000000000000000 ) ) ;
#451 = ORIENTED_EDGE ( 'NONE', *, *, #200, .F. ) ;
#452 = CARTESIAN_POINT ( 'NONE',  ( 0.4999999999999998890, 0.9000000000000000222, -0.6250000000000000000 ) ) ;
#453 = PRODUCT_DEFINITION_FORMATION_WITH_SPECIFIED_SOURCE ( 'ANY', '', #821, .NOT_KNOWN. ) ;
#454 = SURFACE_SIDE_STYLE ('',( #416 ) ) ;
#455 = EDGE_LOOP ( 'NONE', ( #174, #2, #104, #853 ) ) ;
#456 = CARTESIAN_POINT ( 'NONE',  ( -0.9499999999999999556, 0.05000000000000000278, -0.5749999999999999556 ) ) ;
#457 = EDGE_CURVE ( 'NONE', #490, #171, #619, .T. ) ;
#458 = ORIENTED_EDGE ( 'NONE', *, *, #73, .F. ) ;
#459 = DIRECTION ( 'NONE',  ( 1.000000000000000000, 0.000000000000000000, 0.000000000000000000 ) ) ;
#460 = FACE_OUTER_BOUND ( 'NONE', #77, .T. ) ;
#461 = EDGE_CURVE ( 'NONE', #410, #59, #207, .T. ) ;
#462 = ORIENTED_EDGE ( 'NONE', *, *, #803, .F. ) ;
#463 = DIRECTION ( 'NONE',  ( -1.000000000000000000, -0.000000000000000000, 8.673617379884036705E-17 ) ) ;
#464 = CYLINDRICAL_SURFACE ( 'NONE', #106, 0.05000000000000002359 ) ;
#465 = PLANE ( 'NONE',  #1202 ) ;
#466 = ORIENTED_EDGE ( 'NONE', *, *, #754, .T. ) ;
#467 = LINE ( 'NONE', #1215, #446 ) ;
#468 = DIRECTION ( 'NONE',  ( -1.734723475976807587E-16, 0.000000000000000000, 1.000000000000000000 ) ) ;
#469 = CARTESIAN_POINT ( 'NONE',  ( 0.9499999999999999556, 0.8499999999999999778, -0.6250000000000000000 ) ) ;
#470 = ORIENTED_EDGE ( 'NONE', *, *, #754, .F. ) ;
#471 = CARTESIAN_POINT ( 'NONE',  ( 1.000000000000000000, 0.05000000000000002359, -0.6250000000000000000 ) ) ;
#472 = EDGE_LOOP ( 'NONE', ( #1107, #424, #132, #994 ) ) ;
#473 = DIRECTION ( 'NONE',  ( -8.673617379884037937E-17, -0.000000000000000000, -1.000000000000000000 ) ) ;
#474 = DIRECTION ( 'NONE',  ( 1.000000000000000000, 0.000000000000000000, 8.673617379884037937E-17 ) ) ;
#475 = ORIENTED_EDGE ( 'NONE', *, *, #149, .F. ) ;
#476 = DIRECTION ( 'NONE',  ( 1.734723475976807587E-16, 0.000000000000000000, -1.000000000000000000 ) ) ;
#477 = EDGE_CURVE ( 'NONE', #1013, #271, #1017, .T. ) ;
#478 = VERTEX_POINT ( 'NONE', #717 ) ;
#479 = CIRCLE ( 'NONE', #1166, 0.05000000000000002359 ) ;
#480 = ADVANCED_FACE ( 'NONE', ( #604 ), #298, .F. ) ;
#481 = CLOSED_SHELL ( 'NONE', ( #1086, #608, #1238, #480, #493, #19, #878, #175, #267, #401, #327, #444, #962, #773, #914, #560, #737, #308 ) ) ;
#482 = EDGE_CURVE ( 'NONE', #163, #974, #1030, .T. ) ;
#483 = ORIENTED_EDGE ( 'NONE', *, *, #955, .F. ) ;
#484 = DIRECTION ( 'NONE',  ( -0.000000000000000000, -1.000000000000000000, -0.000000000000000000 ) ) ;
#485 = FACE_OUTER_BOUND ( 'NONE', #965, .T. ) ;
#486 = CARTESIAN_POINT ( 'NONE',  ( -0.9499999999999998446, 0.8499999999999999778, 1.647987302177966986E-16 ) ) ;
#487 = ORIENTED_EDGE ( 'NONE', *, *, #1192, .F. ) ;
#488 = CARTESIAN_POINT ( 'NONE',  ( 1.000000000000000000, 0.8499999999999999778, -0.6250000000000000000 ) ) ;
#489 = ORIENTED_EDGE ( 'NONE', *, *, #732, .T. ) ;
#490 = VERTEX_POINT ( 'NONE', #24 ) ;
#491 = LINE ( 'NONE', #96, #945 ) ;
#492 = FACE_OUTER_BOUND ( 'NONE', #587, .T. ) ;
#493 = ADVANCED_FACE ( 'NONE', ( #165 ), #312, .T. ) ;
#494 = ORIENTED_EDGE ( 'NONE', *, *, #301, .T. ) ;
#495 = DIRECTION ( 'NONE',  ( -1.000000000000000000, 0.000000000000000000, 0.000000000000000000 ) ) ;
#496 = VECTOR ( 'NONE', #373, 1000.000000000000000 ) ;
#497 = AXIS2_PLACEMENT_3D ( 'NONE', #836, #1241, #1178 ) ;
#498 = CARTESIAN_POINT ( 'NONE',  ( -0.4999999999999997780, 0.01666666666666667337, 0.5749999999999996225 ) ) ;
#499 = ORIENTED_EDGE ( 'NONE', *, *, #1214, .F. ) ;
#500 = CARTESIAN_POINT ( 'NONE',  ( -0.4999999999999998890, 0.000000000000000000, -0.5749999999999999556 ) ) ;
#501 = AXIS2_PLACEMENT_3D ( 'NONE', #903, #495, #918 ) ;
#502 = ORIENTED_EDGE ( 'NONE', *, *, #230, .T. ) ;
#503 = CIRCLE ( 'NONE', #800, 0.05000000000000002359 ) ;
#504 = EDGE_CURVE ( 'NONE', #67, #857, #591, .T. ) ;
#505 = DIRECTION ( 'NONE',  ( 0.000000000000000000, 0.000000000000000000, -1.000000000000000000 ) ) ;
#506 = ORIENTED_EDGE ( 'NONE', *, *, #41, .T. ) ;
#507 = VERTEX_POINT ( 'NONE', #98 ) ;
#508 = PLANE ( 'NONE',  #789 ) ;
#509 = UNCERTAINTY_MEASURE_WITH_UNIT (LENGTH_MEASURE( 1.000000000000000082E-05 ), #135, 'distance_accuracy_value', 'NONE');
#510 = VERTEX_POINT ( 'NONE', #226 ) ;
#511 = CARTESIAN_POINT ( 'NONE',  ( -0.9499999999999997335, 0.9000000000000000222, 0.5749999999999995115 ) ) ;
#512 = EDGE_LOOP ( 'NONE', ( #901, #265, #1106, #693, #884, #147, #109, #114 ) ) ;
#513 = DIRECTION ( 'NONE',  ( 0.000000000000000000, 0.000000000000000000, 1.000000000000000000 ) ) ;
#514 = EDGE_LOOP ( 'NONE', ( #278, #616, #733, #506 ) ) ;
#515 = DIRECTION ( 'NONE',  ( 0.000000000000000000, 0.000000000000000000, 1.000000000000000000 ) ) ;
#516 = AXIS2_PLACEMENT_3D ( 'NONE', #723, #447, #94 ) ;
#517 = VERTEX_POINT ( 'NONE', #635 ) ;
#518 = CARTESIAN_POINT ( 'NONE',  ( -0.9999999999999997780, 0.05000000000000002359, 0.6249999999999995559 ) ) ;
#519 = PLANE ( 'NONE',  #415 ) ;
#520 = AXIS2_PLACEMENT_3D ( 'NONE', #887, #1137, #1022 ) ;
#521 = ORIENTED_EDGE ( 'NONE', *, *, #895, .T. ) ;
#522 = ADVANCED_FACE ( 'NONE', ( #627 ), #508, .F. ) ;
#523 = EDGE_CURVE ( 'NONE', #935, #578, #169, .T. ) ;
#524 =( NAMED_UNIT ( * ) PLANE_ANGLE_UNIT ( ) SI_UNIT ( $, .RADIAN. ) );
#525 = DIRECTION ( 'NONE',  ( 1.000000000000000000, 0.000000000000000000, 0.000000000000000000 ) ) ;
#526 = ORIENTED_EDGE ( 'NONE', *, *, #746, .T. ) ;
#527 = DIRECTION ( 'NONE',  ( 0.000000000000000000, -1.000000000000000000, 0.000000000000000000 ) ) ;
#528 = COLOUR_RGB ( '',0.7921568627450980005, 0.8196078431372548767, 0.9333333333333333481 ) ;
#529 = EDGE_LOOP ( 'NONE', ( #46, #1088, #624 ) ) ;
#530 = CARTESIAN_POINT ( 'NONE',  ( 0.4999999999999998890, 0.9000000000000000222, -0.6250000000000000000 ) ) ;
#531 = FACE_OUTER_BOUND ( 'NONE', #529, .T. ) ;
#532 = EDGE_LOOP ( 'NONE', ( #678, #6, #153, #1014 ) ) ;
#533 = PLANE ( 'NONE',  #952 ) ;
#534 = FACE_OUTER_BOUND ( 'NONE', #565, .T. ) ;
#535 = CARTESIAN_POINT ( 'NONE',  ( -0.9499999999999997335, 0.8499999999999999778, 0.5749999999999995115 ) ) ;
#536 = AXIS2_PLACEMENT_3D ( 'NONE', #313, #240, #650 ) ;
#537 = ORIENTED_EDGE ( 'NONE', *, *, #176, .T. ) ;
#538 = DIRECTION ( 'NONE',  ( 0.000000000000000000, 0.000000000000000000, 1.000000000000000000 ) ) ;
#539 = FACE_OUTER_BOUND ( 'NONE', #924, .T. ) ;
#540 = EDGE_CURVE ( 'NONE', #1103, #949, #1071, .T. ) ;
#541 = ORIENTED_EDGE ( 'NONE', *, *, #363, .F. ) ;
#542 = EDGE_CURVE ( 'NONE', #216, #1023, #1079, .T. ) ;
#543 = LINE ( 'NONE', #1115, #133 ) ;
#544 = ORIENTED_EDGE ( 'NONE', *, *, #1262, .F. ) ;
#545 = CARTESIAN_POINT ( 'NONE',  ( -0.9499999999999999556, 0.8499999999999999778, -0.6250000000000000000 ) ) ;
#546 = CYLINDRICAL_SURFACE ( 'NONE', #143, 0.03333333333333334675 ) ;
#547 = ADVANCED_FACE ( 'NONE', ( #1050 ), #1043, .T. ) ;
#548 = ORIENTED_EDGE ( 'NONE', *, *, #819, .F. ) ;
#549 = SURFACE_STYLE_USAGE ( .BOTH. , #774 ) ;
#550 = EDGE_LOOP ( 'NONE', ( #39, #462, #1012, #568 ) ) ;
#551 = DIRECTION ( 'NONE',  ( 0.000000000000000000, -1.000000000000000000, 0.000000000000000000 ) ) ;
#552 = AXIS2_PLACEMENT_3D ( 'NONE', #562, #1181, #131 ) ;
#553 = PLANE ( 'NONE',  #864 ) ;
#554 = ORIENTED_EDGE ( 'NONE', *, *, #632, .F. ) ;
#555 = MECHANICAL_DESIGN_GEOMETRIC_PRESENTATION_REPRESENTATION (  '', ( #396 ), #443 ) ;
#556 = CARTESIAN_POINT ( 'NONE',  ( -0.9499999999999997335, 0.05000000000000002359, 0.6249999999999995559 ) ) ;
#557 = ORIENTED_EDGE ( 'NONE', *, *, #1194, .T. ) ;
#558 = CARTESIAN_POINT ( 'NONE',  ( 0.9999999999999997780, 0.05000000000000002359, 0.6249999999999995559 ) ) ;
#559 = EDGE_CURVE ( 'NONE', #1052, #738, #195, .T. ) ;
#560 = ADVANCED_FACE ( 'NONE', ( #1064 ), #1066, .T. ) ;
#561 = ORIENTED_EDGE ( 'NONE', *, *, #400, .F. ) ;
#562 = CARTESIAN_POINT ( 'NONE',  ( 1.000000000000000000, 0.05000000000000002359, -0.5749999999999999556 ) ) ;
#563 = EDGE_CURVE ( 'NONE', #931, #1139, #642, .T. ) ;
#564 = EDGE_LOOP ( 'NONE', ( #1062, #193, #494, #291 ) ) ;
#565 = EDGE_LOOP ( 'NONE', ( #81, #599, #682, #1132 ) ) ;
#566 = CARTESIAN_POINT ( 'NONE',  ( -0.4999999999999997780, 0.8833333333333333037, -0.5749999999999999556 ) ) ;
#567 = ORIENTED_EDGE ( 'NONE', *, *, #732, .F. ) ;
#568 = ORIENTED_EDGE ( 'NONE', *, *, #921, .F. ) ;
#569 = LINE ( 'NONE', #341, #139 ) ;
#570 = SPHERICAL_SURFACE ( 'NONE', #347, 0.05000000000000000278 ) ;
#571 = ORIENTED_EDGE ( 'NONE', *, *, #687, .F. ) ;
#572 = VECTOR ( 'NONE', #1095, 1000.000000000000000 ) ;
#573 = ORIENTED_EDGE ( 'NONE', *, *, #1234, .T. ) ;
#574 = VERTEX_POINT ( 'NONE', #757 ) ;
#575 = AXIS2_PLACEMENT_3D ( 'NONE', #822, #1041, #1158 ) ;
#576 = VECTOR ( 'NONE', #770, 1000.000000000000000 ) ;
#577 = VECTOR ( 'NONE', #365, 1000.000000000000000 ) ;
#578 = VERTEX_POINT ( 'NONE', #767 ) ;
#579 = ORIENTED_EDGE ( 'NONE', *, *, #461, .T. ) ;
#580 = EDGE_CURVE ( 'NONE', #59, #883, #185, .T. ) ;
#581 = DIRECTION ( 'NONE',  ( -1.000000000000000000, 0.000000000000000000, 0.000000000000000000 ) ) ;
#582 = ORIENTED_EDGE ( 'NONE', *, *, #721, .F. ) ;
#583 = ORIENTED_EDGE ( 'NONE', *, *, #784, .F. ) ;
#584 = CIRCLE ( 'NONE', #934, 0.05000000000000002359 ) ;
#585 = EDGE_CURVE ( 'NONE', #926, #216, #215, .T. ) ;
#586 = ORIENTED_EDGE ( 'NONE', *, *, #1192, .T. ) ;
#587 = EDGE_LOOP ( 'NONE', ( #544, #249, #605, #592 ) ) ;
#588 = VECTOR ( 'NONE', #790, 1000.000000000000000 ) ;
#589 = ORIENTED_EDGE ( 'NONE', *, *, #1234, .F. ) ;
#590 = DIRECTION ( 'NONE',  ( -1.000000000000000000, -0.000000000000000000, 8.673617379884036705E-17 ) ) ;
#591 = LINE ( 'NONE', #1199, #639 ) ;
#592 = ORIENTED_EDGE ( 'NONE', *, *, #748, .T. ) ;
#593 = VECTOR ( 'NONE', #1033, 1000.000000000000000 ) ;
#594 = CYLINDRICAL_SURFACE ( 'NONE', #190, 0.05000000000000002359 ) ;
#595 = DIRECTION ( 'NONE',  ( -1.000000000000000000, -0.000000000000000000, 8.673617379884036705E-17 ) ) ;
#596 = ORIENTED_EDGE ( 'NONE', *, *, #91, .T. ) ;
#597 = CARTESIAN_POINT ( 'NONE',  ( 0.9499999999999999556, 0.8499999999999999778, -0.5749999999999999556 ) ) ;
#598 = LINE ( 'NONE', #818, #613 ) ;
#599 = ORIENTED_EDGE ( 'NONE', *, *, #319, .T. ) ;
#600 = ORIENTED_EDGE ( 'NONE', *, *, #293, .T. ) ;
#601 = FACE_OUTER_BOUND ( 'NONE', #981, .T. ) ;
#602 = AXIS2_PLACEMENT_3D ( 'NONE', #118, #463, #1147 ) ;
#603 = CARTESIAN_POINT ( 'NONE',  ( 0.4999999999999998890, 0.9000000000000000222, -0.6250000000000000000 ) ) ;
#604 = FACE_OUTER_BOUND ( 'NONE', #404, .T. ) ;
#605 = ORIENTED_EDGE ( 'NONE', *, *, #363, .T. ) ;
#606 = DIRECTION ( 'NONE',  ( -1.734723475976807587E-16, 0.000000000000000000, 1.000000000000000000 ) ) ;
#607 = EDGE_CURVE ( 'NONE', #610, #1039, #1045, .T. ) ;
#608 = ADVANCED_FACE ( 'NONE', ( #223 ), #275, .F. ) ;
#609 = DIRECTION ( 'NONE',  ( -1.000000000000000000, -0.000000000000000000, 8.673617379884036705E-17 ) ) ;
#610 = VERTEX_POINT ( 'NONE', #1184 ) ;
#611 = ORIENTED_EDGE ( 'NONE', *, *, #687, .T. ) ;
#612 = VECTOR ( 'NONE', #665, 1000.000000000000000 ) ;
#613 = VECTOR ( 'NONE', #656, 1000.000000000000000 ) ;
#614 = VERTEX_POINT ( 'NONE', #1168 ) ;
#615 = DIRECTION ( 'NONE',  ( -1.734723475976807587E-16, 0.000000000000000000, -1.000000000000000000 ) ) ;
#616 = ORIENTED_EDGE ( 'NONE', *, *, #1113, .T. ) ;
#617 = LINE ( 'NONE', #51, #1055 ) ;
#618 = ORIENTED_EDGE ( 'NONE', *, *, #457, .T. ) ;
#619 = CIRCLE ( 'NONE', #501, 0.05000000000000002359 ) ;
#620 = CARTESIAN_POINT ( 'NONE',  ( 0.9999999999999997780, 0.8499999999999999778, 0.6249999999999995559 ) ) ;
#621 = VERTEX_POINT ( 'NONE', #269 ) ;
#622 = DIRECTION ( 'NONE',  ( 0.000000000000000000, 0.000000000000000000, 1.000000000000000000 ) ) ;
#623 = DIRECTION ( 'NONE',  ( -1.000000000000000000, 0.000000000000000000, 0.000000000000000000 ) ) ;
#624 = ORIENTED_EDGE ( 'NONE', *, *, #28, .F. ) ;
#625 = DIRECTION ( 'NONE',  ( 1.734723475976807587E-16, -0.000000000000000000, -1.000000000000000000 ) ) ;
#626 = ORIENTED_EDGE ( 'NONE', *, *, #1009, .F. ) ;
#627 = FACE_OUTER_BOUND ( 'NONE', #947, .T. ) ;
#628 = AXIS2_PLACEMENT_3D ( 'NONE', #318, #1160, #409 ) ;
#629 = ORIENTED_EDGE ( 'NONE', *, *, #286, .T. ) ;
#630 = CARTESIAN_POINT ( 'NONE',  ( -0.9499999999999999556, 0.05000000000000002359, -0.5749999999999999556 ) ) ;
#631 = FACE_OUTER_BOUND ( 'NONE', #700, .T. ) ;
#632 = EDGE_CURVE ( 'NONE', #510, #186, #1125, .T. ) ;
#633 = ORIENTED_EDGE ( 'NONE', *, *, #1113, .F. ) ;
#634 = CARTESIAN_POINT ( 'NONE',  ( -0.4999999999999998890, 0.000000000000000000, -0.6250000000000000000 ) ) ;
#635 = CARTESIAN_POINT ( 'NONE',  ( -0.4999999999999997780, 0.05000000000000002359, -0.6083333333333333925 ) ) ;
#636 = EDGE_LOOP ( 'NONE', ( #71, #277, #1069, #288 ) ) ;
#637 = CARTESIAN_POINT ( 'NONE',  ( -0.4999999999999997780, 0.8499999999999999778, 0.5749999999999995115 ) ) ;
#638 = DIRECTION ( 'NONE',  ( -1.000000000000000000, -0.000000000000000000, 8.673617379884036705E-17 ) ) ;
#639 = VECTOR ( 'NONE', #595, 1000.000000000000000 ) ;
#640 = DIRECTION ( 'NONE',  ( 1.000000000000000000, -0.000000000000000000, -8.673617379884037937E-17 ) ) ;
#641 = DIRECTION ( 'NONE',  ( -0.000000000000000000, 1.000000000000000000, -0.000000000000000000 ) ) ;
#642 = LINE ( 'NONE', #677, #212 ) ;
#643 = VERTEX_POINT ( 'NONE', #658 ) ;
#644 = VECTOR ( 'NONE', #459, 1000.000000000000000 ) ;
#645 = CARTESIAN_POINT ( 'NONE',  ( 0.000000000000000000, 0.000000000000000000, 0.000000000000000000 ) ) ;
#646 = ORIENTED_EDGE ( 'NONE', *, *, #129, .F. ) ;
#647 = AXIS2_PLACEMENT_3D ( 'NONE', #452, #712, #875 ) ;
#648 = CARTESIAN_POINT ( 'NONE',  ( 0.9499999999999997335, 0.9000000000000000222, 0.6249999999999995559 ) ) ;
#649 = ORIENTED_EDGE ( 'NONE', *, *, #328, .T. ) ;
#650 = DIRECTION ( 'NONE',  ( 0.000000000000000000, 0.000000000000000000, -1.000000000000000000 ) ) ;
#651 = AXIS2_PLACEMENT_3D ( 'NONE', #456, #87, #297 ) ;
#652 = ORIENTED_EDGE ( 'NONE', *, *, #328, .F. ) ;
#653 = EDGE_CURVE ( 'NONE', #974, #283, #1122, .T. ) ;
#654 = CARTESIAN_POINT ( 'NONE',  ( 0.4999999999999998890, 0.8499999999999999778, -0.5749999999999999556 ) ) ;
#655 = CIRCLE ( 'NONE', #88, 0.05000000000000002359 ) ;
#656 = DIRECTION ( 'NONE',  ( 1.734723475976807587E-16, -0.000000000000000000, 1.000000000000000000 ) ) ;
#657 = FACE_OUTER_BOUND ( 'NONE', #532, .T. ) ;
#658 = CARTESIAN_POINT ( 'NONE',  ( 0.9999999999999997780, 0.8499999999999999778, 0.5749999999999995115 ) ) ;
#659 = ORIENTED_EDGE ( 'NONE', *, *, #248, .F. ) ;
#660 = DIRECTION ( 'NONE',  ( -1.000000000000000000, -0.000000000000000000, -0.000000000000000000 ) ) ;
#661 = ORIENTED_EDGE ( 'NONE', *, *, #335, .T. ) ;
#662 = CIRCLE ( 'NONE', #775, 0.05000000000000002359 ) ;
#663 = FACE_OUTER_BOUND ( 'NONE', #636, .T. ) ;
#664 = CIRCLE ( 'NONE', #1222, 0.05000000000000002359 ) ;
#665 = DIRECTION ( 'NONE',  ( 1.000000000000000000, -0.000000000000000000, 0.000000000000000000 ) ) ;
#666 = CIRCLE ( 'NONE', #1007, 0.05000000000000002359 ) ;
#667 = MANIFOLD_SOLID_BREP ( 'Mirror2', #1109 ) ;
#668 = VECTOR ( 'NONE', #692, 1000.000000000000000 ) ;
#669 = AXIS2_PLACEMENT_3D ( 'NONE', #1190, #778, #1183 ) ;
#670 = VECTOR ( 'NONE', #353, 1000.000000000000000 ) ;
#671 = ORIENTED_EDGE ( 'NONE', *, *, #317, .F. ) ;
#672 = CYLINDRICAL_SURFACE ( 'NONE', #332, 0.05000000000000002359 ) ;
#673 = CARTESIAN_POINT ( 'NONE',  ( 1.000000000000000000, 0.9000000000000000222, -0.6250000000000000000 ) ) ;
#674 = LINE ( 'NONE', #360, #386 ) ;
#675 = VERTEX_POINT ( 'NONE', #170 ) ;
#676 = DIRECTION ( 'NONE',  ( 0.000000000000000000, -1.000000000000000000, 0.000000000000000000 ) ) ;
#677 = CARTESIAN_POINT ( 'NONE',  ( 500000.0000000000582, 0.05000000000000002359, 0.6083333332899648616 ) ) ;
#678 = ORIENTED_EDGE ( 'NONE', *, *, #326, .T. ) ;
#679 = LINE ( 'NONE', #1274, #252 ) ;
#680 = CARTESIAN_POINT ( 'NONE',  ( -1.000000000000000000, 0.9000000000000000222, -0.6250000000000000000 ) ) ;
#681 = FILL_AREA_STYLE_COLOUR ( '', #528 ) ;
#682 = ORIENTED_EDGE ( 'NONE', *, *, #56, .T. ) ;
#683 = CARTESIAN_POINT ( 'NONE',  ( -0.4999999999999997780, 0.8833333333333333037, -0.5749999999999999556 ) ) ;
#684 = VERTEX_POINT ( 'NONE', #957 ) ;
#685 = SURFACE_STYLE_FILL_AREA ( #53 ) ;
#686 = CARTESIAN_POINT ( 'NONE',  ( 0.4999999999881765689, 0.8499999999999999778, -0.5749999999999999556 ) ) ;
#687 = EDGE_CURVE ( 'NONE', #614, #510, #227, .T. ) ;
#688 = ORIENTED_EDGE ( 'NONE', *, *, #895, .F. ) ;
#689 = CARTESIAN_POINT ( 'NONE',  ( 1.000000000000000000, 0.8499999999999999778, -0.5749999999999999556 ) ) ;
#690 = ORIENTED_EDGE ( 'NONE', *, *, #504, .F. ) ;
#691 = EDGE_CURVE ( 'NONE', #50, #67, #1102, .T. ) ;
#692 = DIRECTION ( 'NONE',  ( 8.673617379884037937E-17, -0.000000000000000000, -1.000000000000000000 ) ) ;
#693 = ORIENTED_EDGE ( 'NONE', *, *, #73, .T. ) ;
#694 = CARTESIAN_POINT ( 'NONE',  ( -0.4999999999999997780, 0.8499999999999999778, -0.5749999999999999556 ) ) ;
#695 = SHAPE_DEFINITION_REPRESENTATION ( #290, #137 ) ;
#696 = CARTESIAN_POINT ( 'NONE',  ( -0.4999999999999998890, 0.8499999999999999778, -0.6250000000000000000 ) ) ;
#697 = LINE ( 'NONE', #202, #1087 ) ;
#698 =( NAMED_UNIT ( * ) SI_UNIT ( $, .STERADIAN. ) SOLID_ANGLE_UNIT ( ) );
#699 = VERTEX_POINT ( 'NONE', #1085 ) ;
#700 = EDGE_LOOP ( 'NONE', ( #1120, #22, #167, #567 ) ) ;
#701 = VERTEX_POINT ( 'NONE', #1242 ) ;
#702 = DIRECTION ( 'NONE',  ( -1.000000000000000000, 0.000000000000000000, 0.000000000000000000 ) ) ;
#703 = DIRECTION ( 'NONE',  ( 1.000000000000000000, 0.000000000000000000, 0.000000000000000000 ) ) ;
#704 = AXIS2_PLACEMENT_3D ( 'NONE', #1159, #27, #825 ) ;
#705 = PLANE ( 'NONE',  #1111 ) ;
#706 = EDGE_CURVE ( 'NONE', #643, #410, #662, .T. ) ;
#707 = EDGE_CURVE ( 'NONE', #574, #851, #664, .T. ) ;
#708 = DIRECTION ( 'NONE',  ( 0.000000000000000000, 0.000000000000000000, 1.000000000000000000 ) ) ;
#709 = DIRECTION ( 'NONE',  ( 0.000000000000000000, -1.000000000000000000, 0.000000000000000000 ) ) ;
#710 = ORIENTED_EDGE ( 'NONE', *, *, #968, .F. ) ;
#711 = ORIENTED_EDGE ( 'NONE', *, *, #776, .T. ) ;
#712 = DIRECTION ( 'NONE',  ( 1.000000000000000000, 0.000000000000000000, 8.673617379884037937E-17 ) ) ;
#713 = CARTESIAN_POINT ( 'NONE',  ( 0.9499999999999997335, 0.05000000000000000278, 0.5749999999999995115 ) ) ;
#714 =( GEOMETRIC_REPRESENTATION_CONTEXT ( 3 ) GLOBAL_UNCERTAINTY_ASSIGNED_CONTEXT ( ( #985 ) ) GLOBAL_UNIT_ASSIGNED_CONTEXT ( ( #48, #391, #40 ) ) REPRESENTATION_CONTEXT ( 'NONE', 'WORKASPACE' ) );
#715 = PRESENTATION_LAYER_ASSIGNMENT (  '', '', ( #396 ) ) ;
#716 = ORIENTED_EDGE ( 'NONE', *, *, #803, .T. ) ;
#717 = CARTESIAN_POINT ( 'NONE',  ( -0.9999999999999997780, 0.05000000000000002359, 0.5749999999999995115 ) ) ;
#718 = CARTESIAN_POINT ( 'NONE',  ( -0.4999999999999997780, 0.8833333333333333037, 0.5749999999999995115 ) ) ;
#719 = ADVANCED_FACE ( 'NONE', ( #241 ), #1112, .T. ) ;
#720 = CARTESIAN_POINT ( 'NONE',  ( -1.000000000000000000, 0.9000000000000000222, -0.5749999999999999556 ) ) ;
#721 = EDGE_CURVE ( 'NONE', #684, #643, #679, .T. ) ;
#722 = EDGE_LOOP ( 'NONE', ( #72, #233, #959, #75 ) ) ;
#723 = CARTESIAN_POINT ( 'NONE',  ( 0.4999999999999997780, 0.8499999999999999778, 0.5749999999999995115 ) ) ;
#724 = PRODUCT_DEFINITION_CONTEXT ( 'detailed design', #849, 'design' ) ;
#725 = DIRECTION ( 'NONE',  ( 0.000000000000000000, 0.000000000000000000, 1.000000000000000000 ) ) ;
#726 = CARTESIAN_POINT ( 'NONE',  ( 0.000000000000000000, 0.000000000000000000, 0.5749999999999995115 ) ) ;
#727 = DIRECTION ( 'NONE',  ( 0.000000000000000000, 0.000000000000000000, 1.000000000000000000 ) ) ;
#728 = DIRECTION ( 'NONE',  ( -1.000000000000000000, 0.000000000000000000, 0.000000000000000000 ) ) ;
#729 = ADVANCED_FACE ( 'NONE', ( #1119 ), #247, .T. ) ;
#730 = ORIENTED_EDGE ( 'NONE', *, *, #523, .T. ) ;
#731 = AXIS2_PLACEMENT_3D ( 'NONE', #342, #709, #870 ) ;
#732 = EDGE_CURVE ( 'NONE', #578, #1010, #697, .T. ) ;
#733 = ORIENTED_EDGE ( 'NONE', *, *, #792, .T. ) ;
#734 = DIRECTION ( 'NONE',  ( 0.000000000000000000, 0.000000000000000000, 1.000000000000000000 ) ) ;
#735 = DIRECTION ( 'NONE',  ( 1.000000000000000000, -0.000000000000000000, -0.000000000000000000 ) ) ;
#736 = DIRECTION ( 'NONE',  ( 0.000000000000000000, -1.000000000000000000, 0.000000000000000000 ) ) ;
#737 = ADVANCED_FACE ( 'NONE', ( #1135 ), #221, .T. ) ;
#738 = VERTEX_POINT ( 'NONE', #999 ) ;
#739 = DIRECTION ( 'NONE',  ( 0.000000000000000000, 1.000000000000000000, 0.000000000000000000 ) ) ;
#740 = CARTESIAN_POINT ( 'NONE',  ( 0.9499999999999999556, 0.05000000000000002359, -0.6250000000000000000 ) ) ;
#741 = ORIENTED_EDGE ( 'NONE', *, *, #1047, .F. ) ;
#742 = PLANE ( 'NONE',  #814 ) ;
#743 = CARTESIAN_POINT ( 'NONE',  ( 0.4999999999999997780, 0.000000000000000000, 0.5749999999999996225 ) ) ;
#744 = PRESENTATION_LAYER_ASSIGNMENT (  '', '', ( #1002 ) ) ;
#745 = CARTESIAN_POINT ( 'NONE',  ( 0.4999999999999998890, 0.8499999999999999778, -0.6250000000000000000 ) ) ;
#746 = EDGE_CURVE ( 'NONE', #935, #271, #655, .T. ) ;
#747 = DIRECTION ( 'NONE',  ( 0.000000000000000000, 1.000000000000000000, 0.000000000000000000 ) ) ;
#748 = EDGE_CURVE ( 'NONE', #259, #684, #1091, .T. ) ;
#749 = CARTESIAN_POINT ( 'NONE',  ( -0.9499999999999997335, 0.9000000000000000222, 0.5749999999999995115 ) ) ;
#750 = PLANE ( 'NONE',  #325 ) ;
#751 = DIRECTION ( 'NONE',  ( -0.000000000000000000, 1.000000000000000000, -0.000000000000000000 ) ) ;
#752 = DIRECTION ( 'NONE',  ( 0.000000000000000000, 0.000000000000000000, 1.000000000000000000 ) ) ;
#753 = AXIS2_PLACEMENT_3D ( 'NONE', #1219, #787, #525 ) ;
#754 = EDGE_CURVE ( 'NONE', #186, #621, #231, .T. ) ;
#755 = CARTESIAN_POINT ( 'NONE',  ( 0.9499999999999998446, 0.8499999999999999778, 1.647987302177966986E-16 ) ) ;
#756 = DIRECTION ( 'NONE',  ( -0.000000000000000000, -1.000000000000000000, -0.000000000000000000 ) ) ;
#757 = CARTESIAN_POINT ( 'NONE',  ( -0.9499999999999999556, 0.9000000000000000222, -0.5749999999999999556 ) ) ;
#758 = DIRECTION ( 'NONE',  ( 0.000000000000000000, 0.000000000000000000, 1.000000000000000000 ) ) ;
#759 = ADVANCED_FACE ( 'NONE', ( #657 ), #672, .T. ) ;
#760 = ADVANCED_FACE ( 'NONE', ( #1110 ), #867, .F. ) ;
#761 = DIRECTION ( 'NONE',  ( -1.000000000000000000, -0.000000000000000000, 8.673617379884036705E-17 ) ) ;
#762 = PLANE ( 'NONE',  #497 ) ;
#763 = UNCERTAINTY_MEASURE_WITH_UNIT (LENGTH_MEASURE( 1.000000000000000082E-05 ), #398, 'distance_accuracy_value', 'NONE');
#764 = AXIS2_PLACEMENT_3D ( 'NONE', #630, #995, #1189 ) ;
#765 = DIRECTION ( 'NONE',  ( 1.000000000000000000, 0.000000000000000000, 8.673617379884037937E-17 ) ) ;
#766 = AXIS2_PLACEMENT_3D ( 'NONE', #535, #835, #420 ) ;
#767 = CARTESIAN_POINT ( 'NONE',  ( -0.4999999999999998890, 0.05000000000000002359, -0.6250000000000000000 ) ) ;
#768 = CARTESIAN_POINT ( 'NONE',  ( 500000.0000000000582, 0.8499999999999999778, 0.6083333332899648616 ) ) ;
#769 = DIRECTION ( 'NONE',  ( 0.000000000000000000, -1.000000000000000000, 0.000000000000000000 ) ) ;
#770 = DIRECTION ( 'NONE',  ( -0.000000000000000000, -1.000000000000000000, -0.000000000000000000 ) ) ;
#771 = UNCERTAINTY_MEASURE_WITH_UNIT (LENGTH_MEASURE( 1.000000000000000082E-05 ), #1042, 'distance_accuracy_value', 'NONE');
#772 = MECHANICAL_DESIGN_GEOMETRIC_PRESENTATION_REPRESENTATION (  '', ( #1002 ), #714 ) ;
#773 = ADVANCED_FACE ( 'NONE', ( #238 ), #594, .T. ) ;
#774 = SURFACE_SIDE_STYLE ('',( #685 ) ) ;
#775 = AXIS2_PLACEMENT_3D ( 'NONE', #964, #930, #1248 ) ;
#776 = EDGE_CURVE ( 'NONE', #1023, #157, #158, .T. ) ;
#777 = DIRECTION ( 'NONE',  ( 1.000000000000000000, -0.000000000000000000, -8.673617379884037937E-17 ) ) ;
#778 = DIRECTION ( 'NONE',  ( 1.000000000000000000, 0.000000000000000000, -8.673617379884036705E-17 ) ) ;
#779 = CARTESIAN_POINT ( 'NONE',  ( 0.000000000000000000, 0.8499999999999999778, 0.5749999999999995115 ) ) ;
#780 = DIRECTION ( 'NONE',  ( 0.000000000000000000, -0.000000000000000000, 1.000000000000000000 ) ) ;
#781 = CARTESIAN_POINT ( 'NONE',  ( -0.4999999999999998890, 0.8499999999999999778, -0.5749999999999999556 ) ) ;
#782 = CARTESIAN_POINT ( 'NONE',  ( 0.9499999999999997335, 0.8499999999999999778, 0.5749999999999995115 ) ) ;
#783 = CARTESIAN_POINT ( 'NONE',  ( 0.000000000000000000, 0.000000000000000000, 0.000000000000000000 ) ) ;
#784 = EDGE_CURVE ( 'NONE', #675, #851, #1060, .T. ) ;
#785 = CARTESIAN_POINT ( 'NONE',  ( 0.9999999999999997780, 0.05000000000000002359, 0.5749999999999995115 ) ) ;
#786 = DIRECTION ( 'NONE',  ( -1.000000000000000000, 0.000000000000000000, 0.000000000000000000 ) ) ;
#787 = DIRECTION ( 'NONE',  ( -0.000000000000000000, 0.000000000000000000, -1.000000000000000000 ) ) ;
#788 = CARTESIAN_POINT ( 'NONE',  ( 0.000000000000000000, 0.8499999999999999778, -0.5749999999999999556 ) ) ;
#789 = AXIS2_PLACEMENT_3D ( 'NONE', #645, #747, #302 ) ;
#790 = DIRECTION ( 'NONE',  ( -1.000000000000000000, 0.000000000000000000, 0.000000000000000000 ) ) ;
#791 = CARTESIAN_POINT ( 'NONE',  ( -0.9499999999999997335, 0.8499999999999999778, 0.5749999999999995115 ) ) ;
#792 = EDGE_CURVE ( 'NONE', #574, #171, #598, .T. ) ;
#793 = LINE ( 'NONE', #436, #797 ) ;
#794 = CARTESIAN_POINT ( 'NONE',  ( -0.4999999999999997780, 0.01666666666666666644, 0.5749999999999996225 ) ) ;
#795 = FACE_OUTER_BOUND ( 'NONE', #564, .T. ) ;
#796 = CARTESIAN_POINT ( 'NONE',  ( -0.4999999999999997780, 0.8499999999999999778, 0.6083333333333329485 ) ) ;
#797 = VECTOR ( 'NONE', #268, 1000.000000000000000 ) ;
#798 = AXIS2_PLACEMENT_3D ( 'NONE', #337, #1142, #344 ) ;
#799 = CARTESIAN_POINT ( 'NONE',  ( 500000.0000000000582, 0.8499999999999999778, -0.5750000000433680425 ) ) ;
#800 = AXIS2_PLACEMENT_3D ( 'NONE', #782, #868, #80 ) ;
#801 = DIRECTION ( 'NONE',  ( 1.000000000000000000, 0.000000000000000000, 0.000000000000000000 ) ) ;
#802 = LINE ( 'NONE', #990, #1225 ) ;
#803 = EDGE_CURVE ( 'NONE', #1010, #851, #152, .T. ) ;
#804 = DIRECTION ( 'NONE',  ( -1.000000000000000000, 0.000000000000000000, 1.734723475976811778E-16 ) ) ;
#805 = DIRECTION ( 'NONE',  ( -1.000000000000000000, 0.000000000000000000, 8.673617379884037937E-17 ) ) ;
#806 = CARTESIAN_POINT ( 'NONE',  ( 0.4999999999999998890, 0.05000000000000002359, -0.6250000000000000000 ) ) ;
#807 = COLOUR_RGB ( '',0.7294117647058823151, 0.3568627450980392246, 0.02352941176470588203 ) ;
#808 = CARTESIAN_POINT ( 'NONE',  ( 500000.0000000000582, 0.01666666666666667337, 0.5749999999566315356 ) ) ;
#809 = DIRECTION ( 'NONE',  ( -8.673617379884037937E-17, -0.000000000000000000, -1.000000000000000000 ) ) ;
#810 = CARTESIAN_POINT ( 'NONE',  ( 0.9499999999999997335, 0.9000000000000000222, 0.5749999999999995115 ) ) ;
#811 = FACE_OUTER_BOUND ( 'NONE', #909, .T. ) ;
#812 = DIRECTION ( 'NONE',  ( -1.734723475976807587E-16, 0.000000000000000000, -1.000000000000000000 ) ) ;
#813 = ADVANCED_FACE ( 'NONE', ( #205 ), #570, .T. ) ;
#814 = AXIS2_PLACEMENT_3D ( 'NONE', #1038, #219, #805 ) ;
#815 = CIRCLE ( 'NONE', #37, 0.05000000000000002359 ) ;
#816 = DIRECTION ( 'NONE',  ( -8.673617379884037937E-17, 0.000000000000000000, 1.000000000000000000 ) ) ;
#817 = EDGE_CURVE ( 'NONE', #507, #701, #1046, .T. ) ;
#818 = CARTESIAN_POINT ( 'NONE',  ( -0.9499999999999997335, 0.9000000000000000222, 0.6249999999999995559 ) ) ;
#819 = EDGE_CURVE ( 'NONE', #1169, #237, #584, .T. ) ;
#820 = CARTESIAN_POINT ( 'NONE',  ( 500000.0000000000582, 0.01666666666666666644, 0.5749999999566315356 ) ) ;
#821 = PRODUCT ( '21.250.90.5', '21.250.90.5', '', ( #177 ) ) ;
#822 = CARTESIAN_POINT ( 'NONE',  ( 0.4999999999881765689, 0.05000000000000002359, 0.5749999999999995115 ) ) ;
#823 =( NAMED_UNIT ( * ) SI_UNIT ( $, .STERADIAN. ) SOLID_ANGLE_UNIT ( ) );
#824 = LINE ( 'NONE', #1005, #1250 ) ;
#825 = DIRECTION ( 'NONE',  ( 0.000000000000000000, 0.000000000000000000, -1.000000000000000000 ) ) ;
#826 = DIRECTION ( 'NONE',  ( -1.000000000000000000, 0.000000000000000000, 0.000000000000000000 ) ) ;
#827 = CIRCLE ( 'NONE', #1092, 0.05000000000000002359 ) ;
#828 = DIRECTION ( 'NONE',  ( 1.000000000000000000, 0.000000000000000000, 8.673617379884037937E-17 ) ) ;
#829 = VECTOR ( 'NONE', #623, 1000.000000000000000 ) ;
#830 = CARTESIAN_POINT ( 'NONE',  ( -0.4999999999999998890, 0.8499999999999999778, -0.6250000000000000000 ) ) ;
#831 = MECHANICAL_DESIGN_GEOMETRIC_PRESENTATION_REPRESENTATION (  '', ( #1212 ), #173 ) ;
#832 = DIRECTION ( 'NONE',  ( -1.000000000000000000, 0.000000000000000000, -1.734723475976807587E-16 ) ) ;
#833 = CIRCLE ( 'NONE', #861, 0.05000000000000002359 ) ;
#834 = EDGE_CURVE ( 'NONE', #123, #872, #187, .T. ) ;
#835 = DIRECTION ( 'NONE',  ( 0.000000000000000000, 1.000000000000000000, 0.000000000000000000 ) ) ;
#836 = CARTESIAN_POINT ( 'NONE',  ( -0.4999999999999997780, 0.8499999999999999778, -0.5749999999999999556 ) ) ;
#837 = CIRCLE ( 'NONE', #575, 0.03333333333333334675 ) ;
#838 = CYLINDRICAL_SURFACE ( 'NONE', #602, 0.03333333333333334675 ) ;
#839 = DIRECTION ( 'NONE',  ( -1.000000000000000000, 0.000000000000000000, 0.000000000000000000 ) ) ;
#840 = FACE_OUTER_BOUND ( 'NONE', #402, .T. ) ;
#841 = SURFACE_SIDE_STYLE ('',( #993 ) ) ;
#842 = DIRECTION ( 'NONE',  ( 0.000000000000000000, 0.000000000000000000, -1.000000000000000000 ) ) ;
#843 = DIRECTION ( 'NONE',  ( 8.673617379884037937E-17, -0.000000000000000000, -1.000000000000000000 ) ) ;
#844 = VECTOR ( 'NONE', #1206, 1000.000000000000000 ) ;
#845 = AXIS2_PLACEMENT_3D ( 'NONE', #694, #859, #1245 ) ;
#846 = ADVANCED_FACE ( 'NONE', ( #172 ), #188, .T. ) ;
#847 = VECTOR ( 'NONE', #251, 1000.000000000000000 ) ;
#848 = DIRECTION ( 'NONE',  ( -0.000000000000000000, 1.000000000000000000, -0.000000000000000000 ) ) ;
#849 = APPLICATION_CONTEXT ( 'automotive_design' ) ;
#850 = DIRECTION ( 'NONE',  ( 0.000000000000000000, -0.000000000000000000, -1.000000000000000000 ) ) ;
#851 = VERTEX_POINT ( 'NONE', #545 ) ;
#852 = DIRECTION ( 'NONE',  ( -1.000000000000000000, 0.000000000000000000, 0.000000000000000000 ) ) ;
#853 = ORIENTED_EDGE ( 'NONE', *, *, #338, .T. ) ;
#854 = ORIENTED_EDGE ( 'NONE', *, *, #317, .T. ) ;
#855 = VECTOR ( 'NONE', #1152, 1000.000000000000000 ) ;
#856 = ADVANCED_FACE ( 'NONE', ( #601 ), #762, .F. ) ;
#857 = VERTEX_POINT ( 'NONE', #683 ) ;
#858 = FACE_OUTER_BOUND ( 'NONE', #93, .T. ) ;
#859 = DIRECTION ( 'NONE',  ( 1.000000000000000000, 0.000000000000000000, -8.673617379884036705E-17 ) ) ;
#860 = ORIENTED_EDGE ( 'NONE', *, *, #13, .T. ) ;
#861 = AXIS2_PLACEMENT_3D ( 'NONE', #368, #474, #727 ) ;
#862 = ORIENTED_EDGE ( 'NONE', *, *, #230, .F. ) ;
#863 = VECTOR ( 'NONE', #960, 1000.000000000000000 ) ;
#864 = AXIS2_PLACEMENT_3D ( 'NONE', #330, #676, #850 ) ;
#865 = ORIENTED_EDGE ( 'NONE', *, *, #1051, .T. ) ;
#866 = ORIENTED_EDGE ( 'NONE', *, *, #1138, .F. ) ;
#867 = PLANE ( 'NONE',  #86 ) ;
#868 = DIRECTION ( 'NONE',  ( -1.000000000000000000, -0.000000000000000000, -0.000000000000000000 ) ) ;
#869 = ORIENTED_EDGE ( 'NONE', *, *, #792, .F. ) ;
#870 = DIRECTION ( 'NONE',  ( -1.000000000000000000, 0.000000000000000000, 0.000000000000000000 ) ) ;
#871 = SPHERICAL_SURFACE ( 'NONE', #34, 0.05000000000000000278 ) ;
#872 = VERTEX_POINT ( 'NONE', #1075 ) ;
#873 = DIRECTION ( 'NONE',  ( 1.000000000000000000, 0.000000000000000000, 0.000000000000000000 ) ) ;
#874 = ORIENTED_EDGE ( 'NONE', *, *, #400, .T. ) ;
#875 = DIRECTION ( 'NONE',  ( -8.673617379884037937E-17, 0.000000000000000000, 1.000000000000000000 ) ) ;
#876 = DIRECTION ( 'NONE',  ( 0.000000000000000000, 0.000000000000000000, 1.000000000000000000 ) ) ;
#877 = ORIENTED_EDGE ( 'NONE', *, *, #482, .T. ) ;
#878 = ADVANCED_FACE ( 'NONE', ( #181 ), #196, .T. ) ;
#879 = DIRECTION ( 'NONE',  ( 0.000000000000000000, 0.000000000000000000, -1.000000000000000000 ) ) ;
#880 = ORIENTED_EDGE ( 'NONE', *, *, #284, .T. ) ;
#881 = AXIS2_PLACEMENT_3D ( 'NONE', #1235, #440, #1101 ) ;
#882 = VECTOR ( 'NONE', #1054, 1000.000000000000000 ) ;
#883 = VERTEX_POINT ( 'NONE', #274 ) ;
#884 = ORIENTED_EDGE ( 'NONE', *, *, #1078, .T. ) ;
#885 = PLANE ( 'NONE',  #38 ) ;
#886 = DIRECTION ( 'NONE',  ( 1.000000000000000000, 0.000000000000000000, 0.000000000000000000 ) ) ;
#887 = CARTESIAN_POINT ( 'NONE',  ( -1.000000000000000000, 0.9000000000000000222, -0.6250000000000000000 ) ) ;
#888 = CARTESIAN_POINT ( 'NONE',  ( 0.000000000000000000, 0.000000000000000000, 0.5749999999999995115 ) ) ;
#889 = CARTESIAN_POINT ( 'NONE',  ( -1.000000000000000000, 0.05000000000000002359, -0.5749999999999999556 ) ) ;
#890 = PLANE ( 'NONE',  #798 ) ;
#891 = VECTOR ( 'NONE', #150, 1000.000000000000000 ) ;
#892 = AXIS2_PLACEMENT_3D ( 'NONE', #405, #1104, #273 ) ;
#893 = DIRECTION ( 'NONE',  ( 0.000000000000000000, 0.000000000000000000, -1.000000000000000000 ) ) ;
#894 = LINE ( 'NONE', #566, #899 ) ;
#895 = EDGE_CURVE ( 'NONE', #517, #904, #617, .T. ) ;
#896 = CIRCLE ( 'NONE', #361, 0.05000000000000002359 ) ;
#897 = ADVANCED_FACE ( 'NONE', ( #1067 ), #191, .T. ) ;
#898 = CARTESIAN_POINT ( 'NONE',  ( 0.9499999999999999556, 0.05000000000000002359, -0.6250000000000000000 ) ) ;
#899 = VECTOR ( 'NONE', #1261, 1000.000000000000000 ) ;
#900 = DIRECTION ( 'NONE',  ( -1.000000000000000000, -0.000000000000000000, 8.673617379884036705E-17 ) ) ;
#901 = ORIENTED_EDGE ( 'NONE', *, *, #691, .T. ) ;
#902 = CYLINDRICAL_SURFACE ( 'NONE', #376, 0.05000000000000002359 ) ;
#903 = CARTESIAN_POINT ( 'NONE',  ( -0.9499999999999997335, 0.8499999999999999778, 0.5749999999999995115 ) ) ;
#904 = VERTEX_POINT ( 'NONE', #280 ) ;
#905 = DIRECTION ( 'NONE',  ( 0.000000000000000000, 0.000000000000000000, 1.000000000000000000 ) ) ;
#906 = CIRCLE ( 'NONE', #764, 0.05000000000000002359 ) ;
#907 = CARTESIAN_POINT ( 'NONE',  ( 0.9499999999999998446, 0.000000000000000000, 1.647987302177966986E-16 ) ) ;
#908 = CARTESIAN_POINT ( 'NONE',  ( 0.4999999999881765689, 0.01666666666666667337, 0.5749999999999996225 ) ) ;
#909 = EDGE_LOOP ( 'NONE', ( #148, #582, #972, #433 ) ) ;
#910 = MECHANICAL_DESIGN_GEOMETRIC_PRESENTATION_REPRESENTATION (  '', ( #1129 ), #1191 ) ;
#911 = ORIENTED_EDGE ( 'NONE', *, *, #1078, .F. ) ;
#912 = DIRECTION ( 'NONE',  ( -1.000000000000000000, -0.000000000000000000, 8.673617379884036705E-17 ) ) ;
#913 = VECTOR ( 'NONE', #641, 1000.000000000000000 ) ;
#914 = ADVANCED_FACE ( 'NONE', ( #631 ), #1259, .T. ) ;
#915 = AXIS2_PLACEMENT_3D ( 'NONE', #438, #29, #140 ) ;
#916 = ORIENTED_EDGE ( 'NONE', *, *, #379, .F. ) ;
#917 = LINE ( 'NONE', #808, #948 ) ;
#918 = DIRECTION ( 'NONE',  ( 0.000000000000000000, 0.000000000000000000, 1.000000000000000000 ) ) ;
#919 = UNCERTAINTY_MEASURE_WITH_UNIT (LENGTH_MEASURE( 1.000000000000000082E-05 ), #253, 'distance_accuracy_value', 'NONE');
#920 = ORIENTED_EDGE ( 'NONE', *, *, #427, .F. ) ;
#921 = EDGE_CURVE ( 'NONE', #675, #20, #793, .T. ) ;
#922 = CARTESIAN_POINT ( 'NONE',  ( -0.9499999999999999556, 0.8499999999999999778, -0.5749999999999999556 ) ) ;
#923 = CARTESIAN_POINT ( 'NONE',  ( -0.4999999999999997780, 0.05000000000000002359, 0.6083333333333329485 ) ) ;
#924 = EDGE_LOOP ( 'NONE', ( #1279, #618, #862 ) ) ;
#925 = FILL_AREA_STYLE ('',( #681 ) ) ;
#926 = VERTEX_POINT ( 'NONE', #556 ) ;
#927 = CARTESIAN_POINT ( 'NONE',  ( 500000.0000000000582, 0.05000000000000002359, -0.6083333333767014794 ) ) ;
#928 = LINE ( 'NONE', #243, #47 ) ;
#929 = ORIENTED_EDGE ( 'NONE', *, *, #477, .F. ) ;
#930 = DIRECTION ( 'NONE',  ( 0.000000000000000000, 0.000000000000000000, 1.000000000000000000 ) ) ;
#931 = VERTEX_POINT ( 'NONE', #407 ) ;
#932 = ORIENTED_EDGE ( 'NONE', *, *, #585, .F. ) ;
#933 = LINE ( 'NONE', #927, #36 ) ;
#934 = AXIS2_PLACEMENT_3D ( 'NONE', #1204, #1065, #1165 ) ;
#935 = VERTEX_POINT ( 'NONE', #696 ) ;
#936 = CARTESIAN_POINT ( 'NONE',  ( 0.000000000000000000, 0.000000000000000000, -0.5749999999999999556 ) ) ;
#937 = CIRCLE ( 'NONE', #263, 0.05000000000000002359 ) ;
#938 = AXIS2_PLACEMENT_3D ( 'NONE', #755, #1133, #21 ) ;
#939 = CARTESIAN_POINT ( 'NONE',  ( -0.9499999999999998446, 0.000000000000000000, 1.647987302177966986E-16 ) ) ;
#940 = EDGE_LOOP ( 'NONE', ( #646, #987, #521, #82 ) ) ;
#941 = EDGE_CURVE ( 'NONE', #1013, #1154, #345, .T. ) ;
#942 = ORIENTED_EDGE ( 'NONE', *, *, #523, .F. ) ;
#943 = LINE ( 'NONE', #997, #913 ) ;
#944 = ORIENTED_EDGE ( 'NONE', *, *, #210, .F. ) ;
#945 = VECTOR ( 'NONE', #1272, 1000.000000000000000 ) ;
#946 = FILL_AREA_STYLE_COLOUR ( '', #807 ) ;
#947 = EDGE_LOOP ( 'NONE', ( #866, #144, #466, #1063 ) ) ;
#948 = VECTOR ( 'NONE', #912, 1000.000000000000000 ) ;
#949 = VERTEX_POINT ( 'NONE', #1035 ) ;
#950 = ORIENTED_EDGE ( 'NONE', *, *, #349, .T. ) ;
#951 = CIRCLE ( 'NONE', #669, 0.03333333333333334675 ) ;
#952 = AXIS2_PLACEMENT_3D ( 'NONE', #673, #161, #728 ) ;
#953 = CLOSED_SHELL ( 'NONE', ( #257, #856, #760, #351, #1223, #414, #1136, #1123, #374, #846 ) ) ;
#954 = VERTEX_POINT ( 'NONE', #718 ) ;
#955 = EDGE_CURVE ( 'NONE', #675, #574, #827, .T. ) ;
#956 = CARTESIAN_POINT ( 'NONE',  ( -0.4999999999999997780, 0.8499999999999999778, 0.6083333333333329485 ) ) ;
#957 = CARTESIAN_POINT ( 'NONE',  ( 0.9999999999999997780, 0.05000000000000002359, 0.5749999999999995115 ) ) ;
#958 = CIRCLE ( 'NONE', #1209, 0.05000000000000002359 ) ;
#959 = ORIENTED_EDGE ( 'NONE', *, *, #559, .T. ) ;
#960 = DIRECTION ( 'NONE',  ( -1.000000000000000000, -0.000000000000000000, 8.673617379884036705E-17 ) ) ;
#961 = ORIENTED_EDGE ( 'NONE', *, *, #41, .F. ) ;
#962 = ADVANCED_FACE ( 'NONE', ( #364 ), #369, .T. ) ;
#963 = ORIENTED_EDGE ( 'NONE', *, *, #349, .F. ) ;
#964 = CARTESIAN_POINT ( 'NONE',  ( 0.9499999999999997335, 0.8499999999999999778, 0.5749999999999995115 ) ) ;
#965 = EDGE_LOOP ( 'NONE', ( #18, #596, #998, #600 ) ) ;
#966 = AXIS2_PLACEMENT_3D ( 'NONE', #1049, #828, #1179 ) ;
#967 = VERTEX_POINT ( 'NONE', #796 ) ;
#968 = EDGE_CURVE ( 'NONE', #975, #490, #348, .T. ) ;
#969 = EDGE_LOOP ( 'NONE', ( #573, #1053, #874, #579 ) ) ;
#970 = CARTESIAN_POINT ( 'NONE',  ( 500000.0000000000582, 0.05000000000000002359, -0.5750000000433680425 ) ) ;
#971 = DIRECTION ( 'NONE',  ( -1.000000000000000000, 0.000000000000000000, 0.000000000000000000 ) ) ;
#972 = ORIENTED_EDGE ( 'NONE', *, *, #748, .F. ) ;
#973 = DIRECTION ( 'NONE',  ( 1.000000000000000000, 0.000000000000000000, 0.000000000000000000 ) ) ;
#974 = VERTEX_POINT ( 'NONE', #740 ) ;
#975 = VERTEX_POINT ( 'NONE', #209 ) ;
#976 = CIRCLE ( 'NONE', #1131, 0.05000000000000002359 ) ;
#977 = DIRECTION ( 'NONE',  ( 8.673617379884037937E-17, -0.000000000000000000, 1.000000000000000000 ) ) ;
#978 = ORIENTED_EDGE ( 'NONE', *, *, #540, .F. ) ;
#979 = DIRECTION ( 'NONE',  ( -0.000000000000000000, 1.000000000000000000, -0.000000000000000000 ) ) ;
#980 =( GEOMETRIC_REPRESENTATION_CONTEXT ( 3 ) GLOBAL_UNCERTAINTY_ASSIGNED_CONTEXT ( ( #509 ) ) GLOBAL_UNIT_ASSIGNED_CONTEXT ( ( #135, #524, #823 ) ) REPRESENTATION_CONTEXT ( 'NONE', 'WORKASPACE' ) );
#981 = EDGE_LOOP ( 'NONE', ( #54, #688, #97, #183, #1100, #991, #1127, #671 ) ) ;
#982 = AXIS2_PLACEMENT_3D ( 'NONE', #217, #609, #1150 ) ;
#983 = LINE ( 'NONE', #956, #572 ) ;
#984 = ORIENTED_EDGE ( 'NONE', *, *, #707, .T. ) ;
#985 = UNCERTAINTY_MEASURE_WITH_UNIT (LENGTH_MEASURE( 1.000000000000000082E-05 ), #48, 'distance_accuracy_value', 'NONE');
#986 = FACE_OUTER_BOUND ( 'NONE', #89, .T. ) ;
#987 = ORIENTED_EDGE ( 'NONE', *, *, #214, .T. ) ;
#988 = CARTESIAN_POINT ( 'NONE',  ( 1.000000000000000000, 0.05000000000000002359, -0.6250000000000000000 ) ) ;
#989 = FACE_OUTER_BOUND ( 'NONE', #1081, .T. ) ;
#990 = CARTESIAN_POINT ( 'NONE',  ( 1.000000000000000000, 0.9000000000000000222, -0.5749999999999999556 ) ) ;
#991 = ORIENTED_EDGE ( 'NONE', *, *, #340, .F. ) ;
#992 = CARTESIAN_POINT ( 'NONE',  ( 0.9999999999999997780, 0.9000000000000000222, 0.6249999999999995559 ) ) ;
#993 = SURFACE_STYLE_FILL_AREA ( #925 ) ;
#994 = ORIENTED_EDGE ( 'NONE', *, *, #482, .F. ) ;
#995 = DIRECTION ( 'NONE',  ( 0.000000000000000000, 1.000000000000000000, 0.000000000000000000 ) ) ;
#996 = CYLINDRICAL_SURFACE ( 'NONE', #982, 0.03333333333333334675 ) ;
#997 = CARTESIAN_POINT ( 'NONE',  ( 0.9499999999999999556, 0.9000000000000000222, -0.6250000000000000000 ) ) ;
#998 = ORIENTED_EDGE ( 'NONE', *, *, #1024, .T. ) ;
#999 = CARTESIAN_POINT ( 'NONE',  ( -0.4999999999999997780, 0.01666666666666666644, -0.5749999999999998446 ) ) ;
#1000 = ORIENTED_EDGE ( 'NONE', *, *, #653, .T. ) ;
#1001 = DIRECTION ( 'NONE',  ( 0.000000000000000000, 0.000000000000000000, -1.000000000000000000 ) ) ;
#1002 = STYLED_ITEM ( 'NONE', ( #1240 ), #1089 ) ;
#1003 = CIRCLE ( 'NONE', #845, 0.03333333333333334675 ) ;
#1004 = ORIENTED_EDGE ( 'NONE', *, *, #819, .T. ) ;
#1005 = CARTESIAN_POINT ( 'NONE',  ( 1.000000000000000000, 0.9000000000000000222, -0.5749999999999999556 ) ) ;
#1006 = CARTESIAN_POINT ( 'NONE',  ( 0.4999999999881765689, 0.8499999999999999778, -0.6083333333333333925 ) ) ;
#1007 = AXIS2_PLACEMENT_3D ( 'NONE', #300, #1256, #873 ) ;
#1008 = ORIENTED_EDGE ( 'NONE', *, *, #955, .T. ) ;
#1009 = EDGE_CURVE ( 'NONE', #883, #206, #802, .T. ) ;
#1010 = VERTEX_POINT ( 'NONE', #1210 ) ;
#1011 = DIRECTION ( 'NONE',  ( 0.000000000000000000, -1.000000000000000000, 0.000000000000000000 ) ) ;
#1012 = ORIENTED_EDGE ( 'NONE', *, *, #1236, .T. ) ;
#1013 = VERTEX_POINT ( 'NONE', #239 ) ;
#1014 = ORIENTED_EDGE ( 'NONE', *, *, #1134, .T. ) ;
#1015 = LINE ( 'NONE', #726, #130 ) ;
#1016 = ORIENTED_EDGE ( 'NONE', *, *, #272, .T. ) ;
#1017 = LINE ( 'NONE', #15, #1059 ) ;
#1018 = ORIENTED_EDGE ( 'NONE', *, *, #653, .F. ) ;
#1019 = ADVANCED_FACE ( 'NONE', ( #1257 ), #1231, .T. ) ;
#1020 = AXIS2_PLACEMENT_3D ( 'NONE', #1221, #660, #758 ) ;
#1021 = EDGE_LOOP ( 'NONE', ( #548, #4, #916, #1016 ) ) ;
#1022 = DIRECTION ( 'NONE',  ( 1.000000000000000000, 0.000000000000000000, -0.000000000000000000 ) ) ;
#1023 = VERTEX_POINT ( 'NONE', #1140 ) ;
#1024 = EDGE_CURVE ( 'NONE', #1169, #206, #815, .T. ) ;
#1025 = DIRECTION ( 'NONE',  ( -1.000000000000000000, -0.000000000000000000, 8.673617379884036705E-17 ) ) ;
#1026 = FACE_OUTER_BOUND ( 'NONE', #142, .T. ) ;
#1027 = ORIENTED_EDGE ( 'NONE', *, *, #706, .T. ) ;
#1028 = VECTOR ( 'NONE', #751, 1000.000000000000000 ) ;
#1029 = DIRECTION ( 'NONE',  ( 0.000000000000000000, -1.000000000000000000, 0.000000000000000000 ) ) ;
#1030 = LINE ( 'NONE', #988, #644 ) ;
#1031 = DIRECTION ( 'NONE',  ( 1.000000000000000000, 0.000000000000000000, 0.000000000000000000 ) ) ;
#1032 = ORIENTED_EDGE ( 'NONE', *, *, #563, .T. ) ;
#1033 = DIRECTION ( 'NONE',  ( 1.000000000000000000, -0.000000000000000000, -0.000000000000000000 ) ) ;
#1034 = VECTOR ( 'NONE', #484, 1000.000000000000000 ) ;
#1035 = CARTESIAN_POINT ( 'NONE',  ( 0.9499999999999997335, 0.8499999999999999778, 0.6249999999999995559 ) ) ;
#1036 = EDGE_LOOP ( 'NONE', ( #451, #120, #184 ) ) ;
#1037 = ADVANCED_FACE ( 'NONE', ( #366 ), #1233, .T. ) ;
#1038 = CARTESIAN_POINT ( 'NONE',  ( 500000.0000000000582, 0.8499999999999999778, 0.6083333332899648616 ) ) ;
#1039 = VERTEX_POINT ( 'NONE', #218 ) ;
#1040 = EDGE_LOOP ( 'NONE', ( #499, #63, #710, #741 ) ) ;
#1041 = DIRECTION ( 'NONE',  ( 1.000000000000000000, 0.000000000000000000, 8.673617379884037937E-17 ) ) ;
#1042 =( LENGTH_UNIT ( ) NAMED_UNIT ( * ) SI_UNIT ( .MILLI., .METRE. ) );
#1043 = CYLINDRICAL_SURFACE ( 'NONE', #423, 0.05000000000000002359 ) ;
#1044 = DIRECTION ( 'NONE',  ( 1.000000000000000000, 0.000000000000000000, 8.673617379884037937E-17 ) ) ;
#1045 = CIRCLE ( 'NONE', #966, 0.03333333333333334675 ) ;
#1046 = LINE ( 'NONE', #939, #577 ) ;
#1047 = EDGE_CURVE ( 'NONE', #478, #975, #1237, .T. ) ;
#1048 = ORIENTED_EDGE ( 'NONE', *, *, #1170, .T. ) ;
#1049 = CARTESIAN_POINT ( 'NONE',  ( 0.4999999999881765689, 0.8499999999999999778, 0.5749999999999995115 ) ) ;
#1050 = FACE_OUTER_BOUND ( 'NONE', #211, .T. ) ;
#1051 = EDGE_CURVE ( 'NONE', #621, #163, #833, .T. ) ;
#1052 = VERTEX_POINT ( 'NONE', #498 ) ;
#1053 = ORIENTED_EDGE ( 'NONE', *, *, #540, .T. ) ;
#1054 = DIRECTION ( 'NONE',  ( 1.000000000000000000, -0.000000000000000000, -0.000000000000000000 ) ) ;
#1055 = VECTOR ( 'NONE', #1247, 1000.000000000000000 ) ;
#1056 = EDGE_CURVE ( 'NONE', #67, #610, #336, .T. ) ;
#1057 = ADVANCED_FACE ( 'NONE', ( #356 ), #388, .T. ) ;
#1058 = CARTESIAN_POINT ( 'NONE',  ( 0.000000000000000000, 0.000000000000000000, 0.000000000000000000 ) ) ;
#1059 = VECTOR ( 'NONE', #473, 1000.000000000000000 ) ;
#1060 = CIRCLE ( 'NONE', #242, 0.05000000000000002359 ) ;
#1061 = FILL_AREA_STYLE ('',( #1226 ) ) ;
#1062 = ORIENTED_EDGE ( 'NONE', *, *, #149, .T. ) ;
#1063 = ORIENTED_EDGE ( 'NONE', *, *, #1194, .F. ) ;
#1064 = FACE_OUTER_BOUND ( 'NONE', #276, .T. ) ;
#1065 = DIRECTION ( 'NONE',  ( 0.000000000000000000, 1.000000000000000000, 0.000000000000000000 ) ) ;
#1066 = SPHERICAL_SURFACE ( 'NONE', #225, 0.05000000000000000278 ) ;
#1067 = FACE_OUTER_BOUND ( 'NONE', #1036, .T. ) ;
#1068 = EDGE_LOOP ( 'NONE', ( #413, #65, #944, #399 ) ) ;
#1069 = ORIENTED_EDGE ( 'NONE', *, *, #776, .F. ) ;
#1070 = AXIS2_PLACEMENT_3D ( 'NONE', #791, #1156, #905 ) ;
#1071 = LINE ( 'NONE', #620, #593 ) ;
#1072 = AXIS2_PLACEMENT_3D ( 'NONE', #637, #346, #378 ) ;
#1073 = ADVANCED_FACE ( 'NONE', ( #811 ), #750, .F. ) ;
#1074 = AXIS2_PLACEMENT_3D ( 'NONE', #108, #246, #1001 ) ;
#1075 = CARTESIAN_POINT ( 'NONE',  ( 0.4999999999881765689, 0.05000000000000002359, -0.6083333333333333925 ) ) ;
#1076 = EDGE_LOOP ( 'NONE', ( #860, #199, #1273 ) ) ;
#1077 = DIRECTION ( 'NONE',  ( -1.000000000000000000, 0.000000000000000000, 0.000000000000000000 ) ) ;
#1078 = EDGE_CURVE ( 'NONE', #931, #189, #837, .T. ) ;
#1079 = CIRCLE ( 'NONE', #1246, 0.05000000000000002359 ) ;
#1080 = DIRECTION ( 'NONE',  ( -1.000000000000000000, -0.000000000000000000, -0.000000000000000000 ) ) ;
#1081 = EDGE_LOOP ( 'NONE', ( #1124, #387, #854, #113 ) ) ;
#1082 = VECTOR ( 'NONE', #893, 1000.000000000000000 ) ;
#1083 = VECTOR ( 'NONE', #843, 1000.000000000000000 ) ;
#1084 = ORIENTED_EDGE ( 'NONE', *, *, #381, .F. ) ;
#1085 = CARTESIAN_POINT ( 'NONE',  ( 0.9499999999999997335, 0.000000000000000000, 0.5749999999999995115 ) ) ;
#1086 = ADVANCED_FACE ( 'NONE', ( #795 ), #418, .F. ) ;
#1087 = VECTOR ( 'NONE', #702, 1000.000000000000000 ) ;
#1088 = ORIENTED_EDGE ( 'NONE', *, *, #1214, .T. ) ;
#1089 = MANIFOLD_SOLID_BREP ( 'Boss-Extrude2', #953 ) ;
#1090 = ORIENTED_EDGE ( 'NONE', *, *, #461, .F. ) ;
#1091 = LINE ( 'NONE', #471, #220 ) ;
#1092 = AXIS2_PLACEMENT_3D ( 'NONE', #922, #110, #786 ) ;
#1093 = CARTESIAN_POINT ( 'NONE',  ( 500000.0000000000582, 0.05000000000000003053, -0.6083333333767014794 ) ) ;
#1094 = EDGE_CURVE ( 'NONE', #1103, #510, #1253, .T. ) ;
#1095 = DIRECTION ( 'NONE',  ( 0.000000000000000000, -1.000000000000000000, 0.000000000000000000 ) ) ;
#1096 = CIRCLE ( 'NONE', #194, 0.05000000000000002359 ) ;
#1097 = ORIENTED_EDGE ( 'NONE', *, *, #340, .T. ) ;
#1098 = ADVANCED_FACE ( 'NONE', ( #362 ), #533, .F. ) ;
#1099 = EDGE_CURVE ( 'NONE', #1169, #259, #824, .T. ) ;
#1100 = ORIENTED_EDGE ( 'NONE', *, *, #335, .F. ) ;
#1101 = DIRECTION ( 'NONE',  ( 0.000000000000000000, 0.000000000000000000, -1.000000000000000000 ) ) ;
#1102 = CIRCLE ( 'NONE', #305, 0.03333333333333334675 ) ;
#1103 = VERTEX_POINT ( 'NONE', #1196 ) ;
#1104 = DIRECTION ( 'NONE',  ( -0.000000000000000000, 0.000000000000000000, 1.000000000000000000 ) ) ;
#1105 = EDGE_LOOP ( 'NONE', ( #1018, #1276, #541 ) ) ;
#1106 = ORIENTED_EDGE ( 'NONE', *, *, #607, .T. ) ;
#1107 = ORIENTED_EDGE ( 'NONE', *, *, #284, .F. ) ;
#1108 = DIRECTION ( 'NONE',  ( 1.000000000000000000, 0.000000000000000000, -8.673617379884036705E-17 ) ) ;
#1109 = CLOSED_SHELL ( 'NONE', ( #1073, #33, #1239, #1098, #1057, #522, #1019, #759, #547, #1037, #897, #729, #245, #1230, #1167, #813, #1146, #719 ) ) ;
#1110 = FACE_OUTER_BOUND ( 'NONE', #940, .T. ) ;
#1111 = AXIS2_PLACEMENT_3D ( 'NONE', #783, #92, #780 ) ;
#1112 = CYLINDRICAL_SURFACE ( 'NONE', #915, 0.05000000000000002359 ) ;
#1113 = EDGE_CURVE ( 'NONE', #271, #574, #359, .T. ) ;
#1114 = VECTOR ( 'NONE', #1077, 1000.000000000000000 ) ;
#1115 = CARTESIAN_POINT ( 'NONE',  ( 500000.0000000000582, 0.01666666666666666644, -0.5750000000433679315 ) ) ;
#1116 = EDGE_CURVE ( 'NONE', #186, #699, #1255, .T. ) ;
#1117 = CARTESIAN_POINT ( 'NONE',  ( -1.000000000000000000, 0.05000000000000002359, -0.5749999999999999556 ) ) ;
#1118 = CARTESIAN_POINT ( 'NONE',  ( -0.9499999999999999556, 0.05000000000000002359, -0.5749999999999999556 ) ) ;
#1119 = FACE_OUTER_BOUND ( 'NONE', #455, .T. ) ;
#1120 = ORIENTED_EDGE ( 'NONE', *, *, #1249, .F. ) ;
#1121 = CARTESIAN_POINT ( 'NONE',  ( -0.9999999999999997780, 0.05000000000000002359, 0.5749999999999995115 ) ) ;
#1122 = CIRCLE ( 'NONE', #1275, 0.05000000000000002359 ) ;
#1123 = ADVANCED_FACE ( 'NONE', ( #16 ), #838, .T. ) ;
#1124 = ORIENTED_EDGE ( 'NONE', *, *, #1056, .F. ) ;
#1125 = CIRCLE ( 'NONE', #70, 0.05000000000000002359 ) ;
#1126 = ORIENTED_EDGE ( 'NONE', *, *, #580, .F. ) ;
#1127 = ORIENTED_EDGE ( 'NONE', *, *, #154, .F. ) ;
#1128 = DIRECTION ( 'NONE',  ( 1.000000000000000000, 0.000000000000000000, 0.000000000000000000 ) ) ;
#1129 = STYLED_ITEM ( 'NONE', ( #127 ), #137 ) ;
#1130 = PRESENTATION_STYLE_ASSIGNMENT (( #549 ) ) ;
#1131 = AXIS2_PLACEMENT_3D ( 'NONE', #1187, #69, #450 ) ;
#1132 = ORIENTED_EDGE ( 'NONE', *, *, #214, .F. ) ;
#1133 = DIRECTION ( 'NONE',  ( 1.734723475976807587E-16, 0.000000000000000000, -1.000000000000000000 ) ) ;
#1134 = EDGE_CURVE ( 'NONE', #949, #614, #9, .T. ) ;
#1135 = FACE_OUTER_BOUND ( 'NONE', #1076, .T. ) ;
#1136 = ADVANCED_FACE ( 'NONE', ( #858 ), #742, .F. ) ;
#1137 = DIRECTION ( 'NONE',  ( 0.000000000000000000, 0.000000000000000000, 1.000000000000000000 ) ) ;
#1138 = EDGE_CURVE ( 'NONE', #699, #283, #384, .T. ) ;
#1139 = VERTEX_POINT ( 'NONE', #923 ) ;
#1140 = CARTESIAN_POINT ( 'NONE',  ( -0.4999999999999997780, 0.000000000000000000, 0.5749999999999996225 ) ) ;
#1141 = EDGE_LOOP ( 'NONE', ( #430, #1027, #561 ) ) ;
#1142 = DIRECTION ( 'NONE',  ( -1.000000000000000000, 0.000000000000000000, 8.673617379884037937E-17 ) ) ;
#1143 = ORIENTED_EDGE ( 'NONE', *, *, #295, .F. ) ;
#1144 = CARTESIAN_POINT ( 'NONE',  ( 0.4999999999881765689, 0.05000000000000002359, -0.5749999999999999556 ) ) ;
#1145 = AXIS2_PLACEMENT_3D ( 'NONE', #266, #1220, #324 ) ;
#1146 = ADVANCED_FACE ( 'NONE', ( #412 ), #871, .T. ) ;
#1147 = DIRECTION ( 'NONE',  ( 0.000000000000000000, 0.000000000000000000, 1.000000000000000000 ) ) ;
#1148 = AXIS2_PLACEMENT_3D ( 'NONE', #749, #112, #310 ) ;
#1149 = SURFACE_STYLE_USAGE ( .BOTH. , #841 ) ;
#1150 = DIRECTION ( 'NONE',  ( 0.000000000000000000, 0.000000000000000000, 1.000000000000000000 ) ) ;
#1151 = CARTESIAN_POINT ( 'NONE',  ( -0.9999999999999997780, 0.9000000000000000222, 0.5749999999999996225 ) ) ;
#1152 = DIRECTION ( 'NONE',  ( 1.734723475976807587E-16, -0.000000000000000000, -1.000000000000000000 ) ) ;
#1153 = CARTESIAN_POINT ( 'NONE',  ( 0.4999999999881765689, 0.05000000000000003053, -0.6083333333333333925 ) ) ;
#1154 = VERTEX_POINT ( 'NONE', #1229 ) ;
#1155 = CARTESIAN_POINT ( 'NONE',  ( -0.4999999999999997780, 0.05000000000000002359, 0.6249999999999995559 ) ) ;
#1156 = DIRECTION ( 'NONE',  ( 0.000000000000000000, 1.000000000000000000, -0.000000000000000000 ) ) ;
#1157 = EDGE_CURVE ( 'NONE', #206, #237, #1268, .T. ) ;
#1158 = DIRECTION ( 'NONE',  ( 0.000000000000000000, 0.000000000000000000, -1.000000000000000000 ) ) ;
#1159 = CARTESIAN_POINT ( 'NONE',  ( -0.9499999999999999556, 0.9000000000000000222, -0.5749999999999999556 ) ) ;
#1160 = DIRECTION ( 'NONE',  ( 0.000000000000000000, 0.000000000000000000, -1.000000000000000000 ) ) ;
#1161 = DIRECTION ( 'NONE',  ( -8.673617379884037937E-17, 0.000000000000000000, 1.000000000000000000 ) ) ;
#1162 = ORIENTED_EDGE ( 'NONE', *, *, #1249, .T. ) ;
#1163 = ORIENTED_EDGE ( 'NONE', *, *, #941, .T. ) ;
#1164 = DIRECTION ( 'NONE',  ( -1.000000000000000000, -0.000000000000000000, -0.000000000000000000 ) ) ;
#1165 = DIRECTION ( 'NONE',  ( 0.000000000000000000, 0.000000000000000000, 1.000000000000000000 ) ) ;
#1166 = AXIS2_PLACEMENT_3D ( 'NONE', #713, #1164, #513 ) ;
#1167 = ADVANCED_FACE ( 'NONE', ( #840 ), #1, .T. ) ;
#1168 = CARTESIAN_POINT ( 'NONE',  ( 0.9499999999999997335, 0.05000000000000002359, 0.6249999999999995559 ) ) ;
#1169 = VERTEX_POINT ( 'NONE', #689 ) ;
#1170 = EDGE_CURVE ( 'NONE', #851, #935, #403, .T. ) ;
#1171 = FILL_AREA_STYLE ('',( #946 ) ) ;
#1172 = CARTESIAN_POINT ( 'NONE',  ( 0.9499999999999997335, 0.05000000000000002359, 0.5749999999999995115 ) ) ;
#1173 = CARTESIAN_POINT ( 'NONE',  ( 0.9499999999999997335, 0.05000000000000002359, 0.5749999999999995115 ) ) ;
#1174 = DIRECTION ( 'NONE',  ( 1.000000000000000000, 0.000000000000000000, 8.673617379884037937E-17 ) ) ;
#1175 = AXIS2_PLACEMENT_3D ( 'NONE', #1058, #725, #886 ) ;
#1176 = CARTESIAN_POINT ( 'NONE',  ( -0.9499999999999997335, 0.05000000000000000278, 0.5749999999999995115 ) ) ;
#1177 = AXIS2_PLACEMENT_3D ( 'NONE', #788, #1252, #279 ) ;
#1178 = DIRECTION ( 'NONE',  ( -8.673617379884036705E-17, 0.000000000000000000, -1.000000000000000000 ) ) ;
#1179 = DIRECTION ( 'NONE',  ( 0.000000000000000000, 0.000000000000000000, -1.000000000000000000 ) ) ;
#1180 = EDGE_CURVE ( 'NONE', #189, #123, #1263, .T. ) ;
#1181 = DIRECTION ( 'NONE',  ( 1.000000000000000000, 0.000000000000000000, 0.000000000000000000 ) ) ;
#1182 = APPLICATION_PROTOCOL_DEFINITION ( 'draft international standard', 'automotive_design', 1998, #49 ) ;
#1183 = DIRECTION ( 'NONE',  ( 0.000000000000000000, 0.000000000000000000, -1.000000000000000000 ) ) ;
#1184 = CARTESIAN_POINT ( 'NONE',  ( 0.4999999999881765689, 0.8833333333333333037, 0.5749999999999995115 ) ) ;
#1185 = PRODUCT_RELATED_PRODUCT_CATEGORY ( 'part', '', ( #821 ) ) ;
#1186 = AXIS2_PLACEMENT_3D ( 'NONE', #1173, #979, #842 ) ;
#1187 = CARTESIAN_POINT ( 'NONE',  ( 0.9499999999999999556, 0.05000000000000002359, -0.5749999999999999556 ) ) ;
#1188 = DIRECTION ( 'NONE',  ( 0.000000000000000000, 0.000000000000000000, 1.000000000000000000 ) ) ;
#1189 = DIRECTION ( 'NONE',  ( 0.000000000000000000, 0.000000000000000000, -1.000000000000000000 ) ) ;
#1190 = CARTESIAN_POINT ( 'NONE',  ( -0.4999999999999997780, 0.05000000000000002359, 0.5749999999999995115 ) ) ;
#1191 =( GEOMETRIC_REPRESENTATION_CONTEXT ( 3 ) GLOBAL_UNCERTAINTY_ASSIGNED_CONTEXT ( ( #771 ) ) GLOBAL_UNIT_ASSIGNED_CONTEXT ( ( #1042, #261, #321 ) ) REPRESENTATION_CONTEXT ( 'NONE', 'WORKASPACE' ) );
#1192 = EDGE_CURVE ( 'NONE', #1039, #967, #1271, .T. ) ;
#1193 = CARTESIAN_POINT ( 'NONE',  ( -0.4999999999999998890, 0.9000000000000000222, -0.6250000000000000000 ) ) ;
#1194 = EDGE_CURVE ( 'NONE', #283, #621, #417, .T. ) ;
#1195 = DIRECTION ( 'NONE',  ( -0.000000000000000000, -0.000000000000000000, 1.000000000000000000 ) ) ;
#1196 = CARTESIAN_POINT ( 'NONE',  ( 0.4999999999999997780, 0.8499999999999999778, 0.6249999999999995559 ) ) ;
#1197 = DIRECTION ( 'NONE',  ( 0.000000000000000000, 0.000000000000000000, -1.000000000000000000 ) ) ;
#1198 = CARTESIAN_POINT ( 'NONE',  ( 0.9499999999999999556, 0.000000000000000000, -0.5749999999999999556 ) ) ;
#1199 = CARTESIAN_POINT ( 'NONE',  ( 500000.0000000000582, 0.8833333333333333037, -0.5750000000433680425 ) ) ;
#1200 = DIRECTION ( 'NONE',  ( 1.000000000000000000, 0.000000000000000000, 0.000000000000000000 ) ) ;
#1201 = CARTESIAN_POINT ( 'NONE',  ( -0.4999999999999997780, 0.05000000000000002359, -0.5749999999999999556 ) ) ;
#1202 = AXIS2_PLACEMENT_3D ( 'NONE', #992, #1197, #973 ) ;
#1203 = PLANE ( 'NONE',  #647 ) ;
#1204 = CARTESIAN_POINT ( 'NONE',  ( 0.9499999999999999556, 0.8499999999999999778, -0.5749999999999999556 ) ) ;
#1205 = DIRECTION ( 'NONE',  ( -1.000000000000000000, 0.000000000000000000, -0.000000000000000000 ) ) ;
#1206 = DIRECTION ( 'NONE',  ( 0.000000000000000000, -1.000000000000000000, 0.000000000000000000 ) ) ;
#1207 = CARTESIAN_POINT ( 'NONE',  ( 0.9499999999999997335, 0.8499999999999999778, 0.5749999999999995115 ) ) ;
#1208 = CARTESIAN_POINT ( 'NONE',  ( 0.4999999999999997780, 0.9000000000000000222, 0.5749999999999995115 ) ) ;
#1209 = AXIS2_PLACEMENT_3D ( 'NONE', #1207, #146, #372 ) ;
#1210 = CARTESIAN_POINT ( 'NONE',  ( -0.9499999999999999556, 0.05000000000000002359, -0.6250000000000000000 ) ) ;
#1211 = CARTESIAN_POINT ( 'NONE',  ( 500000.0000000000582, 0.8833333333333333037, 0.5749999999566314246 ) ) ;
#1212 = STYLED_ITEM ( 'NONE', ( #1130 ), #667 ) ;
#1213 = CARTESIAN_POINT ( 'NONE',  ( -0.4999999999999998890, 0.05000000000000002359, -0.5749999999999999556 ) ) ;
#1214 = EDGE_CURVE ( 'NONE', #926, #478, #422, .T. ) ;
#1215 = CARTESIAN_POINT ( 'NONE',  ( -1.000000000000000000, 0.05000000000000002359, -0.6250000000000000000 ) ) ;
#1216 = CARTESIAN_POINT ( 'NONE',  ( -0.4999999999999997780, 0.05000000000000002359, 0.5749999999999995115 ) ) ;
#1217 = DIRECTION ( 'NONE',  ( 1.000000000000000000, 0.000000000000000000, 0.000000000000000000 ) ) ;
#1218 = CARTESIAN_POINT ( 'NONE',  ( 1.000000000000000000, 0.9000000000000000222, -0.6250000000000000000 ) ) ;
#1219 = CARTESIAN_POINT ( 'NONE',  ( -0.9499999999999997335, 0.8499999999999999778, 0.5749999999999995115 ) ) ;
#1220 = DIRECTION ( 'NONE',  ( 0.000000000000000000, 1.000000000000000000, 0.000000000000000000 ) ) ;
#1221 = CARTESIAN_POINT ( 'NONE',  ( 0.9499999999999999556, 0.8499999999999999778, -0.5749999999999999556 ) ) ;
#1222 = AXIS2_PLACEMENT_3D ( 'NONE', #323, #281, #255 ) ;
#1223 = ADVANCED_FACE ( 'NONE', ( #425 ), #519, .F. ) ;
#1224 = DIRECTION ( 'NONE',  ( 1.000000000000000000, 0.000000000000000000, -1.734723475976807587E-16 ) ) ;
#1225 = VECTOR ( 'NONE', #1128, 1000.000000000000000 ) ;
#1226 = FILL_AREA_STYLE_COLOUR ( '', #431 ) ;
#1227 = SURFACE_STYLE_FILL_AREA ( #1171 ) ;
#1228 = DIRECTION ( 'NONE',  ( 0.000000000000000000, 0.000000000000000000, 1.000000000000000000 ) ) ;
#1229 = CARTESIAN_POINT ( 'NONE',  ( -0.4999999999999997780, 0.8499999999999999778, 0.6249999999999995559 ) ) ;
#1230 = ADVANCED_FACE ( 'NONE', ( #492 ), #902, .T. ) ;
#1231 = CYLINDRICAL_SURFACE ( 'NONE', #260, 0.05000000000000002359 ) ;
#1232 = AXIS2_PLACEMENT_3D ( 'NONE', #1266, #1011, #90 ) ;
#1233 = SPHERICAL_SURFACE ( 'NONE', #1232, 0.05000000000000000278 ) ;
#1234 = EDGE_CURVE ( 'NONE', #59, #1103, #448, .T. ) ;
#1235 = CARTESIAN_POINT ( 'NONE',  ( -0.9499999999999997335, 0.05000000000000002359, 0.5749999999999995115 ) ) ;
#1236 = EDGE_CURVE ( 'NONE', #1010, #20, #906, .T. ) ;
#1237 = LINE ( 'NONE', #1151, #354 ) ;
#1238 = ADVANCED_FACE ( 'NONE', ( #44 ), #890, .F. ) ;
#1239 = ADVANCED_FACE ( 'NONE', ( #460 ), #1203, .F. ) ;
#1240 = PRESENTATION_STYLE_ASSIGNMENT (( #320 ) ) ;
#1241 = DIRECTION ( 'NONE',  ( 1.000000000000000000, 0.000000000000000000, -8.673617379884036705E-17 ) ) ;
#1242 = CARTESIAN_POINT ( 'NONE',  ( -0.9499999999999999556, 0.000000000000000000, -0.5749999999999999556 ) ) ;
#1243 = CARTESIAN_POINT ( 'NONE',  ( 0.000000000000000000, 0.000000000000000000, -0.5749999999999999556 ) ) ;
#1244 = DIRECTION ( 'NONE',  ( 0.000000000000000000, 0.000000000000000000, -1.000000000000000000 ) ) ;
#1245 = DIRECTION ( 'NONE',  ( 0.000000000000000000, 0.000000000000000000, -1.000000000000000000 ) ) ;
#1246 = AXIS2_PLACEMENT_3D ( 'NONE', #1216, #128, #734 ) ;
#1247 = DIRECTION ( 'NONE',  ( 0.000000000000000000, 1.000000000000000000, 0.000000000000000000 ) ) ;
#1248 = DIRECTION ( 'NONE',  ( -1.000000000000000000, 0.000000000000000000, 0.000000000000000000 ) ) ;
#1249 = EDGE_CURVE ( 'NONE', #157, #578, #79, .T. ) ;
#1250 = VECTOR ( 'NONE', #352, 1000.000000000000000 ) ;
#1251 = EDGE_CURVE ( 'NONE', #643, #949, #958, .T. ) ;
#1252 = DIRECTION ( 'NONE',  ( -1.000000000000000000, 0.000000000000000000, 0.000000000000000000 ) ) ;
#1253 = LINE ( 'NONE', #31, #355 ) ;
#1254 = DIRECTION ( 'NONE',  ( 0.000000000000000000, 0.000000000000000000, 1.000000000000000000 ) ) ;
#1255 = LINE ( 'NONE', #888, #371 ) ;
#1256 = DIRECTION ( 'NONE',  ( -0.000000000000000000, -0.000000000000000000, -1.000000000000000000 ) ) ;
#1257 = FACE_OUTER_BOUND ( 'NONE', #969, .T. ) ;
#1258 = AXIS2_PLACEMENT_3D ( 'NONE', #1117, #852, #334 ) ;
#1259 = CYLINDRICAL_SURFACE ( 'NONE', #1258, 0.05000000000000002359 ) ;
#1260 = AXIS2_PLACEMENT_3D ( 'NONE', #357, #236, #1277 ) ;
#1261 = DIRECTION ( 'NONE',  ( 0.000000000000000000, 0.000000000000000000, 1.000000000000000000 ) ) ;
#1262 = EDGE_CURVE ( 'NONE', #699, #684, #441, .T. ) ;
#1263 = LINE ( 'NONE', #258, #397 ) ;
#1264 = DIRECTION ( 'NONE',  ( -1.000000000000000000, 0.000000000000000000, 0.000000000000000000 ) ) ;
#1265 = VECTOR ( 'NONE', #638, 1000.000000000000000 ) ;
#1266 = CARTESIAN_POINT ( 'NONE',  ( 0.9499999999999997335, 0.8499999999999999778, 0.5749999999999995115 ) ) ;
#1267 = DIRECTION ( 'NONE',  ( 0.000000000000000000, 0.000000000000000000, 1.000000000000000000 ) ) ;
#1268 = CIRCLE ( 'NONE', #1020, 0.05000000000000002359 ) ;
#1269 = AXIS2_PLACEMENT_3D ( 'NONE', #1172, #162, #122 ) ;
#1270 = VECTOR ( 'NONE', #370, 1000.000000000000000 ) ;
#1271 = LINE ( 'NONE', #768, #863 ) ;
#1272 = DIRECTION ( 'NONE',  ( 0.000000000000000000, -1.000000000000000000, -0.000000000000000000 ) ) ;
#1273 = ORIENTED_EDGE ( 'NONE', *, *, #1236, .F. ) ;
#1274 = CARTESIAN_POINT ( 'NONE',  ( 0.9999999999999997780, 0.9000000000000000222, 0.5749999999999996225 ) ) ;
#1275 = AXIS2_PLACEMENT_3D ( 'NONE', #62, #182, #752 ) ;
#1276 = ORIENTED_EDGE ( 'NONE', *, *, #379, .T. ) ;
#1277 = DIRECTION ( 'NONE',  ( 0.000000000000000000, -0.000000000000000000, 1.000000000000000000 ) ) ;
#1278 = CARTESIAN_POINT ( 'NONE',  ( 0.4999999999881765689, 0.8833333333333333037, -0.5750000000867361294 ) ) ;
#1279 = ORIENTED_EDGE ( 'NONE', *, *, #968, .T. ) ;
#1280 = DIRECTION ( 'NONE',  ( 0.000000000000000000, 0.000000000000000000, -1.000000000000000000 ) ) ;
ENDSEC;
END-ISO-10303-21;
